<svg xmlns="http://www.w3.org/2000/svg" xmlns:xlink="http://www.w3.org/1999/xlink" width="1203" height="622" fill="none" xmlns:v="https://vecta.io/nano"><style><![CDATA[.B{fill:#263238}.C{stroke-linejoin:round}.D{stroke:#263238}.E{fill:#fff}.F{stroke-linecap:round}.G{fill:#ffbe9d}.H{fill:#455a64}.I{stroke-width:2}.J{fill:#eb996e}.K{fill:#ff725e}.L{fill:#92e3a9}.M{opacity:.3}.N{fill:#c69481}.O{fill:#936457}.P{fill:#a3a3a3}.Q{fill:#9b9b9b}]]></style><use xlink:href="#E" class="L"/><use xlink:href="#E" opacity=".7" class="E"/><path d="M812.5 23.285l-5.866-14.657h-95.24V414.75H1084V23.285H812.5z" class="P"/><path d="M1076.68 32.705H716.615v377.863h360.065V32.705z" class="E"/><path d="M1076.68 32.705H716.615V48.4h360.065V32.705z" class="L"/><path d="M860.12 85.955s1.478-1.982 1.808 0-2.532 4.435-2.532 4.435l.724-4.435zm-14.2 0s-1.478-1.982-1.8 0 2.532 4.435 2.532 4.435l-.723-4.435z" class="C D E"/><path d="M967.864 276.813h-131.7c-1.32-.002-2.624.256-3.842.76s-2.326 1.242-3.258 2.174a10.01 10.01 0 0 0-2.174 3.257c-.504 1.22-.762 2.524-.76 3.843v53.942l11.874-12.582h129.87a10.05 10.05 0 0 0 10.049-10.033v-31.327c0-1.32-.26-2.625-.765-3.844a10.04 10.04 0 0 0-2.179-3.257c-.933-.932-2.04-1.67-3.26-2.174s-2.525-.76-3.844-.76z" class="P"/><g class="E"><path d="M865.282 308.052a14.19 14.19 0 0 0 .565-20.054 14.19 14.19 0 0 0-20.054-.565 14.19 14.19 0 0 0-.565 20.054 14.19 14.19 0 0 0 20.054.565z"/><g class="C D"><path d="M860.12 297.918s1.478-1.982 1.808 0-2.532 4.45-2.532 4.45l.724-4.45zm-14.2 0s-1.478-1.982-1.8 0 2.532 4.45 2.532 4.45l-.723-4.45z"/><path d="M853.516 288.183s-5.583-.424-6.873 3.287c-.885 3.58-.885 7.32 0 10.9.425 1.132 4 6.73 5.017 7.155.63.212 1.298.296 1.963.248a5.02 5.02 0 0 0 1.906-.531c.424-.582 4-5.882 4.293-7.737.102-2.738.05-5.478-.157-8.2-.055-.962-.38-1.89-.935-2.676s-1.322-1.402-2.21-1.774a9.62 9.62 0 0 0-3.003-.661z"/></g></g><path d="M859.665 293.3c-.055-.962-.38-1.89-.935-2.676s-1.322-1.402-2.2-1.774a9.63 9.63 0 0 0-3.004-.661s-5.583-.425-6.873 3.287a18.02 18.02 0 0 0-.629 6.542c.268.33 1.21 1.337 1.07 0s-.33-5.93.817-6.92 1.322-1.808 2.957-.503 1.494 2.485 3.145 1.652 1.982-2.627 3.46-1.966.99 3.774.99 5.268 0 4.278.99 2.957a3.93 3.93 0 0 0 .44-.897l-.22-4.31z" class="B C D"/><g stroke="#fff" class="F C"><path d="M875.438 288.797H904.7" class="I"/><path d="M875.438 298.988h89.532m-89.532 8.43h89.532m-89.532 9.3h89.532"/></g><path d="M1037.67 207.05H906.01c-2.66 0-5.213 1.057-7.095 2.94s-2.938 4.433-2.938 7.094v31.328c0 2.66 1.057 5.213 2.938 7.095s4.434 2.938 7.095 2.938h129.89l11.87 12.582v-53.943a10 10 0 0 0-.77-3.854c-.5-1.22-1.25-2.33-2.2-3.263s-2.05-1.67-3.28-2.17c-1.22-.5-2.53-.754-3.86-.745z" class="P"/><g class="E"><path d="M922.87 243.252c7.8 0 14.122-6.322 14.122-14.122s-6.323-14.122-14.122-14.122-14.123 6.322-14.123 14.122 6.323 14.122 14.123 14.122z"/><g class="C D"><path d="M929.978 228.155s1.573-1.966 1.8 0-2.516 4.45-2.516 4.45l.707-4.45zm-14.185 0s-1.48-1.966-1.8 0 2.595 4.45 2.595 4.45l-.786-4.45z"/><path d="M923.39 218.42s-5.583-.425-6.873 3.287a22.5 22.5 0 0 0 0 10.898c.425 1.133 4.01 6.73 5 7.156a5.03 5.03 0 0 0 1.963.248 5.02 5.02 0 0 0 1.906-.531c.44-.582 4-5.882 4.293-7.738a65.95 65.95 0 0 0-.157-8.209c-.05-.963-.373-1.892-.93-2.68a5.1 5.1 0 0 0-2.215-1.771c-.953-.382-1.963-.605-2.988-.66z"/></g></g><g class="B C D"><path d="M929.522 223.53c-.05-.963-.373-1.892-.93-2.68a5.1 5.1 0 0 0-2.215-1.771c-.953-.382-1.963-.605-2.988-.66 0 0-5.583-.425-6.873 3.287-.606 2.124-.824 4.34-.644 6.542.283.33 1.21 1.337 1.07.08-.157-1.573-.33-5.93.834-6.92s1.305-1.81 2.956-.487 1.478 2.47 3.145 1.572 1.982-2.626 3.46-1.966.99 3.775.99 5.27 0 4.277.975 2.956c.2-.275.34-.577.44-.896l-.22-4.325z"/><path d="M917.774 221.408c.633.93 1.457 1.71 2.417 2.294s2.035.954 3.15 1.087c1.06.217 2.156.218 3.218.002a8.06 8.06 0 0 0 2.962-1.26s1.793 0 1.793-2.123.598-1.227-2.453-1.227-10.27-5.693-11.088 1.227z"/></g><path d="M922.65 229.067h-5.55l.597 1.84a.86.86 0 0 0 .313.431c.146.107.323.166.505.167h2.862a.87.87 0 0 0 .833-.661l.44-1.777zm6.15 0h-5.552l.598 1.84a.86.86 0 0 0 .312.431.87.87 0 0 0 .505.167h2.926c.193.001.38-.064.533-.184a.85.85 0 0 0 .3-.477l.378-1.777z" class="E C D"/><g stroke="#fff" class="F C"><path d="M945.296 219.033h29.25" class="I"/><path d="M945.296 229.224h89.534m-89.534 8.43h89.534m-89.534 9.3h89.534"/></g><path d="M969.735 138.875h-131.7c-2.665 0-5.22 1.06-7.106 2.943a10.05 10.05 0 0 0-2.943 7.106v53.943l11.873-12.582h129.886c2.66 0 5.213-1.057 7.095-2.94a10.03 10.03 0 0 0 2.939-7.094v-31.328a10.02 10.02 0 0 0-.76-3.844 10.04 10.04 0 0 0-2.174-3.261 10.02 10.02 0 0 0-3.257-2.179c-1.218-.505-2.524-.765-3.843-.765z" class="L"/><g class="E"><path d="M856.572 178.77c7.692-1.293 12.88-8.576 11.587-16.268s-8.576-12.88-16.268-11.586-12.88 8.576-11.587 16.267 8.576 12.88 16.268 11.587z"/><g class="C D"><path d="M852.462 154.114c-.67-.27-1.386-.405-2.107-.393s-1.434.17-2.093.463-1.253.717-1.744 1.246a5.35 5.35 0 0 0-1.117 1.829c-1.935 5.112.487 12.157.487 15.067s2.925 5.362 6.086 5.598 7.297.724 9.72-3.145 1.463-12.393.488-17.3-6.322-3.618-9.72-3.366z"/><path d="M861.347 163.865s1.573-1.982 1.825 0-2.532 4.45-2.532 4.45l.707-4.45zm-14.185 0s-1.478-1.982-1.808 0 2.532 4.45 2.532 4.45l-.724-4.45z"/><path d="M854.758 154.13s-5.583-.425-6.872 3.287a22.5 22.5 0 0 0 0 10.898c.424 1.133 4 6.73 5 7.156.63.212 1.298.296 1.962.247a5.01 5.01 0 0 0 1.906-.53c.44-.582 4.01-5.882 4.31-7.738a72.53 72.53 0 0 0-.157-8.209 5.15 5.15 0 0 0-.937-2.674c-.556-.787-1.32-1.402-2.208-1.777-.96-.382-1.973-.606-3.004-.66z"/><path d="M850.527 155.577s9.028 8.288 10.836 8.288 2.045-6.102.1-9.027-11.197-4.64-10.946.74z"/></g></g><g class="F C D"><path d="M875.564 149.93h29.252" class="I"/><path d="M875.564 160.122h89.532m-89.532 8.413h89.532m-89.532 9.3h89.532"/></g><path d="M811.683 62.758H756.01V406.95h55.672V62.758z" class="L"/><g class="E"><path d="M794.915 174.504a17.82 17.82 0 0 0-25.198-25.199 17.82 17.82 0 0 0 0 25.199c6.958 6.958 18.24 6.958 25.198 0z"/><g class="C D"><path d="M780.088 148.374s-6.448-2.453-8.9 3.994.613 15.334.613 19.014 3.68 6.747 7.675 7.06 9.2.912 12.266-3.994 1.84-15.648.614-21.782-7.974-4.608-12.267-4.293z"/><path d="M791.3 160.672s1.872-2.485 2.296 0-3.145 5.615-3.145 5.615l.85-5.615zm-17.833 0s-1.872-2.485-2.296 0 3.145 5.615 3.145 5.615l-.85-5.615z"/><path d="M782.982 148.4s-7.045-.535-8.68 4.15-.534 12.3 0 13.745 5.064 8.493 6.29 9.027 4.34.362 4.89-.36 5.064-7.407 5.4-9.75c.163-3.428.12-6.862-.126-10.285-.07-1.215-.48-2.386-1.182-3.38s-1.673-1.768-2.797-2.235a12.07 12.07 0 0 0-3.806-.912z"/><path d="M777.635 150.198s11.386 10.458 13.667 10.458 2.58-7.7.125-11.386-14.106-5.803-13.792.928z"/></g><path d="M786.404 119.415c9.58-2.25 15.522-11.84 13.27-21.42s-11.84-15.522-21.42-13.27-15.52 11.84-13.27 21.42 11.84 15.52 21.42 13.27z"/><g class="C D"><path d="M791.3 100.864s1.872-2.5 2.296 0-3.145 5.598-3.145 5.598l.85-5.598zm-17.833 0s-1.872-2.5-2.296 0 3.145 5.598 3.145 5.598l-.85-5.598z"/><path d="M782.982 88.58s-7.045-.55-8.68 4.152-.534 12.283 0 13.73 5.064 8.493 6.29 9.043 4.34.362 4.89-.36 5.064-7.408 5.4-9.767a85.89 85.89 0 0 0-.189-10.348c-.065-1.216-.474-2.39-1.178-3.382s-1.675-1.767-2.8-2.232a11.65 11.65 0 0 0-3.743-.834z"/></g></g><path d="M790.766 95.03c-.065-1.216-.473-2.39-1.177-3.382s-1.676-1.767-2.8-2.232c-1.203-.486-2.48-.768-3.775-.834 0 0-7.045-.55-8.68 4.152a23.11 23.11 0 0 0-.802 8.257c.362.41 1.573 1.667 1.353 0-.205-1.872-.41-7.47 1.037-8.73s1.668-2.28 3.743-.613 1.872 3.145 3.948 2.076 2.485-3.334 4.356-2.5 1.258 4.718 1.258 6.652 0 5.394 1.243 3.743c.23-.353.414-.734.55-1.133l-.252-5.457z" class="B C D"/><g class="E"><path d="M782.32 239.195a17.82 17.82 0 0 0 17.818-17.818 17.82 17.82 0 0 0-17.818-17.818 17.82 17.82 0 0 0-17.818 17.818 17.82 17.82 0 0 0 17.818 17.818z"/><g class="C D"><path d="M791.3 220.15s1.872-2.485 2.296 0-3.145 5.614-3.145 5.614l.85-5.614zm-17.833 0s-1.872-2.485-2.296 0 3.145 5.614 3.145 5.614l-.85-5.614z"/><path d="M782.982 207.868s-7.045-.55-8.68 4.152-.534 12.298 0 13.745 5.064 8.492 6.29 9.027 4.34.36 4.89-.362 5.064-7.407 5.4-9.75a86.14 86.14 0 0 0-.189-10.363 6.44 6.44 0 0 0-1.178-3.383c-.704-.993-1.675-1.767-2.8-2.232a12.06 12.06 0 0 0-3.743-.833z"/></g></g><g class="B C D"><path d="M790.767 214.316a6.45 6.45 0 0 0-1.178-3.383c-.704-.993-1.675-1.767-2.8-2.232a12.08 12.08 0 0 0-3.774-.833s-7.046-.55-8.68 4.152c-.763 2.68-1.035 5.478-.802 8.256.36.41 1.572 1.683 1.352.08-.204-1.856-.41-7.47 1.038-8.713s1.667-2.296 3.743-.63 1.87 3.145 3.947 2.076 2.485-3.318 4.357-2.485 1.258 4.718 1.258 6.637 0 5.4 1.242 3.743c.227-.35.412-.724.55-1.117l-.252-5.55z"/><path d="M775.9 211.642c1.685 2.23 4.15 3.744 6.9 4.24s5.588-.063 7.946-1.566c0 0 2.233 0 2.233-2.673s.786-1.573-3.146-1.573-12.895-7.155-13.933 1.573z"/></g><path d="M782.054 221.314h-7.014l.74 2.312a1.09 1.09 0 0 0 1.039.739h3.602a1.09 1.09 0 0 0 .667-.228 1.08 1.08 0 0 0 .386-.59l.582-2.233zm7.754 0H782.8l.74 2.312a1.11 1.11 0 0 0 .4.535 1.1 1.1 0 0 0 .637.204h3.617a1.06 1.06 0 0 0 1.038-.818l.566-2.233z" class="E C D"/><path d="M770.92 128.747h22.93m-22.93 58.613h22.93M770.92 246h22.93" class="F I C D"/><path d="M812.5 23.285l-5.866-14.657h-95.24V414.75H1084V23.285H812.5z" class="P"/><path d="M1076.67 32.705H716.614v377.863h360.056V32.705z" class="E"/><path d="M1076.67 32.705H716.614V48.4h360.056V32.705z" class="L"/><path fill="#fdd8e1" d="M771.99 67.395h67.04v67.04h-67.04z"/><g class="C D F"><path d="M781.766 78.568h29.25" class="I"/><path d="M781.766 91.138h44.693m-44.693 8.38h44.693m-44.693 9.777h32.123"/></g><path fill="#acf4e3" d="M920.037 197.286h67.04v67.04h-67.04z"/><g class="C D F"><path d="M929.813 208.46h29.252" class="I"/><path d="M929.813 221.03h44.694m-44.694 8.38h44.694"/></g><path fill="#f9fc79" d="M681.205 230.806h67.04v67.04h-67.04z"/><g class="C D F"><path d="M690.98 241.98h29.252" class="I"/><path d="M690.98 254.55h44.694m-44.694 8.38h44.694m-44.694 9.776h44.694m-44.694 9.777h32.124"/></g><path fill="#99e8fc" d="M1065.3 91.138h67.04v67.04h-67.04z"/><g class="C D F"><path d="M1075.07 114.882h44.7m-44.7 8.38h44.7m-44.7 9.778h32.12"/><path d="M1075.07 103.708h29.25" class="I"/></g><g class="L"><path d="M533.57 360.667s0-5.457-7.628-13.1-12.58-12-12.58-12-3.82 12.582 3.27 20.193a134.78 134.78 0 0 0 16.938 14.72v-9.813zm-11 34.063s0-5.457-7.627-13.085-12.582-12.015-12.582-12.015-3.82 12.58 3.27 20.193a134.93 134.93 0 0 0 16.938 14.72v-9.813z"/><path d="M533.128 369.96s.566-5.425 8.98-12.22 13.73-10.6 13.73-10.6 2.485 12.88-5.378 19.72c-5.755 4.787-11.9 9.085-18.37 12.85l1.038-9.75zM519.73 410.2s1.148-5.33 10.222-11.197 14.783-9.106 14.783-9.106 1.1 13.07-7.438 19.045c-6.225 4.155-12.785 7.785-19.6 10.85l2.044-9.593zm2.515 43.85s0-5.457 7.643-13.084 12.582-12.015 12.582-12.015 3.82 12.58-3.272 20.193c-5.22 5.37-10.88 10.293-16.92 14.72l-.032-9.814zm-.125 10.68s.786-5.4-5.693-14.044-10.7-13.666-10.7-13.666-5.567 11.873.362 20.444c4.404 6.06 9.307 11.74 14.657 16.985l1.384-9.72zm-7.534 31.768s0-5.458 7.643-13.1 12.58-12 12.58-12 3.822 12.58-3.27 20.177c-5.218 5.377-10.878 10.307-16.922 14.736l-.03-9.813zm5.112 28.762s-1.384-5.284 4.073-14.594 9.1-14.8 9.1-14.8 6.872 11.182 1.95 20.35a134.3 134.3 0 0 1-12.58 18.54l-2.532-9.5z"/></g><g stroke-width=".5" class="C D F"><path d="M534.292 359.267c-.38 5.68-1.078 11.336-2.092 16.938-3.02 15.6-10.568 25.618-13.588 39.772s5.662 32.24 3.334 50.326-9.436 28.15-7.36 40.228 12.58 44.774 12.58 44.774"/><path d="M533.05 373.578l8.225-6.322m-7.848-.943l-3.445-6.134m-10.914 55.12l13.98-10.332m-10.488-.424c-3.436-6.636-7.535-12.906-12.236-18.714m12.236 75.975c3.93-7.25 8.893-13.887 14.735-19.706m-16.12 27.35a96.67 96.67 0 0 0-7.454-14.154l-4.592-6.7m5.457 57.92c1.748-4.345 3.825-8.55 6.212-12.58a79.95 79.95 0 0 1 8.052-10.489m-6.668 51.314c-.396-4.137.315-8.306 2.06-12.078 2.878-5.55 6.134-12.833 7.47-15.726"/></g><g class="L"><path d="M483.6 433.544s-.582-3.428 3.365-9.043 6.574-8.885 6.574-8.885 3.76 7.454.14 13.006c-2.688 3.916-5.703 7.6-9 11.008l-1.07-6.086zm10.652 20.176s-.582-3.412 3.38-9.027 6.558-8.885 6.558-8.885 3.76 7.454.14 13.006a85.66 85.66 0 0 1-9.011 11.008l-1.07-6.102z"/><path d="M484.9 439.316s-.96-3.35-6.967-6.684-9.766-5.158-9.766-5.158-.157 8.335 5.52 11.78c4.127 2.38 8.446 4.4 12.912 6.07l-1.7-6.007zm12.764 23.84s-1.3-3.145-7.6-5.93-10.254-4.104-10.254-4.104.723 8.32 6.715 11.15c4.36 1.943 8.873 3.522 13.493 4.718l-2.343-5.835zm3.193 27.7s-.598-3.428-6.3-7.375l-9.1-6.18s-1.037 8.272 4.23 12.298c3.853 2.803 7.935 5.276 12.204 7.392l-1.054-6.134zm1.258 6.7s-1.086-3.303 2.044-9.436 5.237-9.735 5.237-9.735 4.718 6.84 1.982 12.865a84.98 84.98 0 0 1-7.345 12.235l-1.918-5.93zm9.562 27.585s.394-3.445 5.788-7.722 8.8-6.668 8.8-6.668 1.573 8.2-3.523 12.58c-3.692 3.014-7.626 5.718-11.763 8.083l.707-6.274zm-1.415-8.524s-.598-3.413-6.3-7.376-9.17-6.165-9.17-6.165-1.038 8.288 4.246 12.298a84.6 84.6 0 0 0 12.204 7.408l-1-6.165zm-.08 18.62s.3-3.46-4.136-8.713-7.313-8.335-7.313-8.335-3.146 7.753 1 12.975a85.81 85.81 0 0 0 9.939 10.253l.52-6.18z"/></g><g stroke-width=".5" class="C D F"><path d="M483.008 432.742c.86 3.52 1.9 6.99 3.145 10.395 3.586 9.436 9.436 14.94 12.833 23.45s0 20.822 3.38 31.925 8.933 16.638 8.98 24.423-2.94 29.44-2.94 29.44"/><path d="M485.35 441.58l-5.85-3.066m4.812-1.464l1.495-4.215m12.833 33.468l-9.892-4.97m6.558-1.478a69.88 69.88 0 0 1 5.646-13.069m.566 48.972c-3.252-4.114-7.082-7.737-11.37-10.757m13.052 15.413a60 60 0 0 1 3.146-9.688l2.154-4.718m2.58 42.84a51.73 51.73 0 0 1 6.29-6.526c1.454-1.075 2.822-2.264 4.1-3.555m-10.114 4.152a57.99 57.99 0 0 0-5.252-7.203 52.32 52.32 0 0 0-6.181-5.724m9.75 31.485a14.86 14.86 0 0 0-2.611-7.36c-2.406-3.146-5.237-7.376-6.385-9.027"/></g><g class="B"><path d="M492.68 548.6h49.995v36.627a4.72 4.72 0 0 1-4.718 4.718h-40.45c-1.252 0-2.452-.497-3.336-1.382a4.72 4.72 0 0 1-1.382-3.336V548.6h-.1z"/><path d="M542.25 555.126h-49.57c-1.027-.012-2.01-.428-2.733-1.158s-1.13-1.714-1.135-2.742.4-2.026 1.124-2.762 1.71-1.157 2.744-1.17h49.57a3.91 3.91 0 0 1 1.497.305c.474.198.905.488 1.267.853a3.93 3.93 0 0 1 .844 1.274c.195.476.294.986.292 1.5-.004 1.033-.417 2.023-1.147 2.753s-1.72 1.143-2.753 1.147z"/></g><path d="M15 590h1183" class="C D F"/><mask id="A" mask-type="alpha" maskUnits="userSpaceOnUse" x="1120" y="62" width="55" height="55"><circle cx="1147.5" cy="89.5" r="27.5" class="Q"/></mask><g mask="url(#A)"><circle cx="1147.92" cy="89.083" r="27.917" fill="#7ed4ea"/><path d="M1145.25 84.125l-2.98-9.434-5.38-.266c-.87 1.228-.9 2.89-.5 4.354.37 1.463 1.1 2.8 1.64 4.214.53 1.415.87 2.978.43 4.42-.57 1.89-2.34 3.187-3.07 5.02s-.28 3.962.18 5.912a4.33 4.33 0 0 0 .87 2.033c.8.836 2.15.87 3.27.566 3.18-.87 5.47-3.852 6.24-7.06.76-3.21.23-6.578-.7-9.756z" class="B"/><path d="M1139.22 89.637s-4.13.266-6.03 3.957c-.33.644-2.4 8.88-4.46 16.608l-5.9 23.37 4.02.783s6.1-18.632 7.46-20.17c1.3-1.446 6.6-23.117 4.96-24.502" class="N"/><path d="M1144.02 102.013a2.52 2.52 0 0 1-.09-1.488c.05-.507.24-.988.56-1.385.06.03-.2.63-.33 1.42-.13.788-.08 1.446-.14 1.454z" class="O"/><path d="M1154.8 105.7c-.32-.674-.56-1.385-.7-2.116-.22-.707-.35-1.438-.4-2.177.26.696.46 1.412.6 2.142a15.7 15.7 0 0 1 .48 2.151z" class="B"/><path d="M1150.76 89.053h-9.4l-2.14.583v.266s.5 12.673 3.8 14.284c3.3 1.6 13.63-12.887 13.63-12.887l-5.9-2.246z" class="N"/><path d="M1154.73 90.568l.95.36c-3.17 11.624-.43 28.107-.43 28.107l-19.8 1.42s-1.57-.283-2-1.702c-.43-1.42 4.54-28.925 4.54-28.925l.92-.196s3.26 11.898 4.96 12.4 10.86-11.463 10.86-11.463z" class="K"/><g class="M"><path d="M1155.25 117.072c-1.02.257-7.62-1.955-8.67-2.007-.96-.052-1.87.344-2.8.596-2.02.54-4.16.41-6.1-.37-.24-.076-.45-.206-.62-.378a.82.82 0 0 1-.16-.368c-.02-.134-.01-.272.04-.4l5.34.04a2.05 2.05 0 0 0 1.06-.209c.08-.043.15-.1.2-.192l1.44-.04 2.7.06 1.55.052" fill="#000" class="M"/><path d="M1144.98 105.27a4.14 4.14 0 0 0 1.31 2.555c.36.33.8.578 1.25.728a3.46 3.46 0 0 0 1.45.143c.48-.066.94-.252 1.33-.542.4-.3.7-.674.92-1.117a5.79 5.79 0 0 1-3.35.152 5.76 5.76 0 0 1-2.86-1.732" fill="#000" class="M"/></g><path d="M1151.73 106.64s-.08.087-.25.205c-.24.157-.5.288-.78.39-.92.35-1.92.407-2.86.166-.95-.24-1.8-.768-2.44-1.51a3.66 3.66 0 0 1-.51-.714c-.1-.183-.13-.287-.12-.296s.24.388.74.906c.66.673 1.48 1.153 2.4 1.39.9.22 1.86.182 2.75-.11.68-.2 1.06-.462 1.08-.427z" class="B"/><g class="H"><path d="M1141.08 107.82l-2.07-4.47-7.13-.444-.25.413 5.4 10.4 6.5.056-2.46-5.964z"/><path d="M1140.82 108.235l-2.07-4.467-7.12-.435 5.15 10.83 5.78.044c.34.003.67-.123.93-.353l.05-.048-2.72-5.572z"/></g><path d="M1135.42 105.422c.06.047.12.078.2.088s.14-.001.2-.03a.4.4 0 0 0 .15-.14c.03-.06.05-.13.05-.2-.01-.07-.03-.138-.07-.195s-.1-.1-.17-.123-.14-.027-.2-.01c-.06.018-.13.055-.17.107-.04.035-.06.075-.08.12a.63.63 0 0 0-.02.138c.01.047.02.093.04.136a.43.43 0 0 0 .08.111z" fill="#ebebeb"/><path d="M1149.2 109.34l-2.8-.714a3.83 3.83 0 0 0-1.28-1.16c-.52-.285-1.08-.453-1.67-.5l-1-.06-.7.72s-4.84-.092-5.05.492v.304l4.1.536-3.72-.24c-.2-.008-.98-.117-1 .292 0 .34.38.63.98.758.24.052 3.26.51 3.26.51l-3.34-.24c-.37-.026-.36.575-.14.667.2.09 4.37 1.59 4.37 1.59-.4.236-.86.36-1.33.357-.6-.08-1.55-.897-1.78-.553s-.2.557-.08.648c.6.395 1.25.745 1.9 1.05.44.153 5.13-.082 5.13-.082l4.35 1.153-.24-5.533z" class="N"/><path d="M1140.12 107.586a12.7 12.7 0 0 1 1.7.043c.56.014 1.13.063 1.7.148-.57.02-1.14.007-1.7-.043a14.41 14.41 0 0 1-1.69-.148z" class="O"/><path d="M1140.43 107.386l-.13-.266-.34-.744-1.16-2.582h.03l-1.64-.104-3.94-.262-1.2-.087-.32-.03h-.1.44l1.2.065 5.57.348 1.14 2.59.32.753.14.318z" class="B"/><path d="M1156.65 91.3s1.67.54 2.4 3.252c.87 3.178 4.53 19.965 3.92 21.768-.44 1.393-.84 2.264-2.77 2.177s-10.75-3.627-10.75-3.627l-.22-5.53 6.97.793-2.05-6.814.68-9.804 1.82-2.216z" class="N"/><path d="M1159.75 113.48c-.18-.188-.32-.4-.44-.626a9.82 9.82 0 0 0-1.06-1.463c-.4-.444-.88-.798-1.43-1.036l-.7-.266c.26-.026.53.015.77.118.6.204 1.12.56 1.54 1.03.4.464.76.98 1.03 1.537.13.22.23.456.3.705z" class="O"/><path d="M1142.34 68.98c0-.675-.78-1.154-1.45-1.04a2.2 2.2 0 0 0-.89.453 2.26 2.26 0 0 0-.61.8l-1.04 1.99c-1.46 2.255-1.74 3.004-2.17 4.763-.32 1.232-.03 2.612.3 3.83a16.63 16.63 0 0 0 1.49 3.513 13.43 13.43 0 0 1 .99 2.09 3.69 3.69 0 0 1 .06 2.277c-.04.094-.05.2-.02.3.06.148.27.152.43.113.38-.125.72-.355.98-.663a2.15 2.15 0 0 0 .47-1.079c.1-.8-.03-1.61-.36-2.347l-.87-2.246c-.45-1.694-.14-3.483-.06-5.224 0-.99.07-1.978.2-2.956a3.88 3.88 0 0 1 1.47-2.49c.34-.18.66-.395.96-.64a.86.86 0 0 0 .27-.494.82.82 0 0 0-.11-.551" class="B"/><path d="M1141.76 88.07l.02-1c0 .013-3.05-.58-3.57-4.558-.26-1.98-.1-5.224.14-7.836.2-2.377 1.85-5.26 4.22-4.95l7.36 2.046c.72.09.96.705.92 1.432l.05.34-.6 11.332-.2 1.898c-.1 2.177-2.13 8.076-4.44 8.137-2.24.11-3.88-.905-3.88-6.83z" class="N"/><g class="B"><path d="M1139.53 77.66c0 .132.04.26.13.357s.22.156.35.165c.06.008.13.003.2-.015a.5.5 0 0 0 .17-.089c.05-.04.1-.1.12-.148s.05-.12.05-.184c.01-.132-.04-.262-.13-.36a.5.5 0 0 0-.34-.166c-.07-.007-.13-.001-.2.018a.51.51 0 0 0-.17.09.72.72 0 0 0-.13.148.4.4 0 0 0-.05.184zm5.2.3c0 .132.05.26.14.357a.51.51 0 0 0 .34.165c.07.007.13.001.2-.018a.51.51 0 0 0 .17-.089c.05-.04.1-.1.12-.147a.58.58 0 0 0 .06-.182.53.53 0 0 0-.13-.362c-.1-.1-.22-.158-.35-.165a.47.47 0 0 0-.19.018.51.51 0 0 0-.17.09.48.48 0 0 0-.12.148c-.03.057-.05.12-.06.183zm-5.7-1.506c.06.07.43-.2 1-.192.56.017.94.296 1 .23s-.03-.148-.2-.283a1.36 1.36 0 0 0-.8-.266 1.31 1.31 0 0 0-.79.235c-.18.1-.24.244-.2.274zm5.36.388c.06.065.44-.2 1-.196.57.013.94.296 1 .23.07-.065-.03-.148-.2-.28a1.39 1.39 0 0 0-.8-.27c-.3-.007-.56.077-.8.24-.17.122-.23.244-.2.274zm-2.1 3.758a3.49 3.49 0 0 0-.87-.183c-.14 0-.28-.048-.3-.144a.67.67 0 0 1 .1-.414l.43-1.053a19.27 19.27 0 0 0 1-2.764 18.87 18.87 0 0 0-1.22 2.677l-.43 1.062a.8.8 0 0 0-.1.544c.02.05.05.097.1.134a.33.33 0 0 0 .13.08 1.4 1.4 0 0 0 .24.039 3.81 3.81 0 0 0 .91.022z"/></g><path d="M1141.78 87.06a10.05 10.05 0 0 0 5.34-1.306s-1.4 2.77-5.36 2.303l.02-.997z" class="O"/><g class="B"><path d="M1144.42 74.93c.07.144.6.04 1.25.078s1.18.178 1.25.044c.04-.07-.06-.2-.28-.335a2.13 2.13 0 0 0-.94-.266c-.33-.018-.66.04-.97.174-.22.113-.34.235-.3.305zm-5.3-.16c.1.126.56 0 1.1 0s.98.1 1.1-.022c.05-.06-.02-.187-.2-.3a1.78 1.78 0 0 0-.88-.226c-.3-.001-.6.08-.87.23-.22.135-.28.26-.23.326z"/></g><path d="M1142.85 81.69c.08-.094.17-.17.28-.224a.84.84 0 0 1 .35-.085c.13.003.27.035.4.094s.23.142.32.246v.026c.07.075.1.17.12.27a.61.61 0 0 1-.07.324c-.05.1-.13.186-.22.25a.88.88 0 0 1-.5.178c-.18.007-.35-.04-.5-.14-.15-.106-.24-.26-.28-.435-.03-.174 0-.355.1-.506z" class="O"/><g class="B"><path d="M1144.14 81.208c-.03 0-.06.126-.15.305-.1.23-.28.425-.5.562a1.31 1.31 0 0 1-.73.174c-.2 0-.32-.048-.34 0-.01.048.1.113.32.165a1.2 1.2 0 0 0 .86-.142 1.16 1.16 0 0 0 .53-.69c.06-.235.03-.374.01-.374zm-2.47-11.45a1.15 1.15 0 0 1-.1.6c-.07.187-.2.352-.35.48a6.17 6.17 0 0 1-.99.67c-1.06.657-1.58 2.098-2.07 3.243-.88-1.66.46-3.8 1.57-5.107a2.42 2.42 0 0 1 .7-.6 1.01 1.01 0 0 1 .87-.052"/><path d="M1154.52 88.44c-2.32-7.044.53-8.31-.33-12.825-.36-1.85-2.22-4.554-3.48-5.956-.78-.812-1.7-1.457-2.75-1.896a8.23 8.23 0 0 0-3.26-.659c-.84-.064-1.68.14-2.4.58-.35.227-.6.566-.75.96-.13.395-.13.823.01 1.216l.07.53c.47.87 1.6 1.14 2.6 1.193 1 .052 2.07.026 2.87.623.68.496 1 1.332 1.28 2.116.9 2.52-1.28 3.574 1.12 4.575 1.38.575-.16 2.982-.97 5.6-1.17 3.976-1.55 8.14-1.14 12.264.22 1.92.68 3.975 2.13 5.25.74.644 1.66 1.03 2.64 1.097-.2-.7-.2-1.437 0-2.137.62.522.64 1.34 1.43 1.55-.56-.87.28-2.473.65-3.44.38-.967 1-1.837 1.38-2.804v-.55c.05-2.46-.32-4.908-1.1-7.24l-.01-.04z"/></g><path d="M1149.62 79.24a1.2 1.2 0 0 1 .18-.551c.1-.166.25-.303.42-.397s.36-.145.56-.145.4.05.56.144c.4.244.7.714.64 1.61-.15 2.386-2.52 1.74-2.52 1.676a244.81 244.81 0 0 1 .16-2.338z" class="N"/><path d="M1150.25 80.72s.04.03.1.065c.05.025.1.04.16.044.05.004.1-.002.15-.018.16-.085.3-.21.4-.363.1-.153.14-.328.15-.507.02-.204-.01-.41-.08-.6-.02-.076-.05-.147-.1-.206a.5.5 0 0 0-.19-.134.22.22 0 0 0-.15 0 .2.2 0 0 0-.1.096c-.04.065-.03.113-.04.117-.02.004-.05-.043-.02-.14.01-.058.05-.108.1-.144.07-.045.15-.062.23-.048.1.026.2.077.26.147s.13.157.15.254c.1.212.13.442.1.67 0 .214-.06.423-.18.6a1.08 1.08 0 0 1-.49.397c-.06.015-.13.015-.2 0a.41.41 0 0 1-.18-.087c-.07-.087-.08-.14-.07-.144z" class="B"/><path d="M1149.34 82.35a.15.15 0 0 0 0 .131.51.51 0 0 0 .21.292c.08.053.17.086.26.098a.6.6 0 0 0 .28-.032c.1-.037.2-.097.3-.175.08-.078.14-.173.18-.278.08-.2.1-.44.04-.657-.04-.176-.12-.34-.24-.475-.22-.23-.44-.248-.44-.235a1.22 1.22 0 0 1 .36.287c.12.145.2.316.22.5a1.11 1.11 0 0 1-.05.542c-.04.092-.1.176-.16.246s-.16.126-.25.163c-.12.05-.26.048-.4-.003a.49.49 0 0 1-.28-.271c-.02-.096-.02-.13-.03-.13z" class="E"/><path d="M1142.13 70.124c.15-.16.32-.307.5-.435.52-.312 1.13-.44 1.74-.366.4.042.8.163 1.18.357a4.35 4.35 0 0 1 1.12.871c.36.388.68.81.96 1.263l.83 1.493a14.83 14.83 0 0 0 .87 1.493 7.25 7.25 0 0 0 .98 1.245l1.04 1c.3.292.55.623.75.984.3.525.42 1.143.3 1.74-.06.214-.14.42-.26.605l.1-.14a1.42 1.42 0 0 0 .2-.435c.13-.607.03-1.24-.28-1.78a4.62 4.62 0 0 0-.75-1.01l-1.04-1c-.38-.372-.7-.784-1-1.228-.3-.462-.57-.962-.84-1.485l-.83-1.498a7.58 7.58 0 0 0-.98-1.275 4.35 4.35 0 0 0-1.15-.871c-.38-.194-.8-.314-1.22-.353a2.75 2.75 0 0 0-1.74.405c-.14.095-.26.206-.37.33-.05.03-.1.06-.13.096z" class="H"/></g><mask id="B" mask-type="alpha" maskUnits="userSpaceOnUse" x="646" y="289" width="60" height="60"><circle r="30" transform="matrix(-1 0 0 1 676 319)" class="Q"/></mask><g mask="url(#B)"><circle r="30.455" transform="matrix(-1 0 0 1 675.545 318.545)" fill="#f4ba3f"/><g class="B"><path d="M667.527 307.17c.95 1.83 1.425 3.87 1.385 5.93a7.23 7.23 0 0 1-.72 2.966c-.45.926-1.1 1.746-1.88 2.405-.3.27-.677.418-1.075.4-.395-.045-.74-.5-.56-.835a5.11 5.11 0 0 1-1.35 1.54.96.96 0 0 1-.625.245.7.7 0 0 1-.401-.259c-.1-.13-.148-.293-.14-.456a1.99 1.99 0 0 1 .315-.92 2.23 2.23 0 0 0-1.1.44c-.355.185-.87.245-1.08-.095s0-.695.196-1c.88-1.38 1.765-2.835 1.915-4.46.1-1.16-.18-2.34.06-3.5.155-.694.494-1.333.98-1.85a4.06 4.06 0 0 1 1.79-1.1c.386-.137.802-.162 1.202-.074a2.19 2.19 0 0 1 1.06.574m8.674 9.15c.785-1.075 2.285-1.425 2.9-2.6 1.106-2.06.96-3.97.88-6.3-.055-1.6.105-3.87-.88-5.14l-1.8-2.375c-.68-1.035-1.385-2.266-.725-3.316"/><path d="M675.853 316.295a2.28 2.28 0 0 1 1.29-.684c.493-.08 1 .004 1.44.24l-2.025-19.573c.885-.12 2.97 1.075 3.555 1.745.552.707.984 1.5 1.28 2.346 1.396 3.395 2.166 6.81.62 9.9l.085 1.445a7.63 7.63 0 0 1-.528 3.177c-.4 1.01-1.012 1.92-1.793 2.674v.025l-.225.225a2.23 2.23 0 0 0-.62 1.916v.03a2.05 2.05 0 0 1 .05.61c-.005.105-.038.207-.096.295s-.14.16-.234.205c-.3.12-.64-.165-.775-.465a3.75 3.75 0 0 0-.405-.91c-.188.36-.355.73-.5 1.1-.205.355-.68.63-1 .395a.89.89 0 0 1-.285-.425 6.04 6.04 0 0 1-.535-2.186 2.95 2.95 0 0 1 .7-2.095z"/></g><path d="M665.256 304.733l.63 17.003c.025.686.2 1.36.484 1.98s.7 1.174 1.225 1.628a5.05 5.05 0 0 0 1.768 1.012 5.07 5.07 0 0 0 2.024.232 4.89 4.89 0 0 0 4.461-5.196v-2.926s4.255-.955 4.4-5.25c.075-2.076.025-5.56-.195-9.437-.114-2.01-.98-3.9-2.427-5.3a8 8 0 0 0-5.379-2.247h-.415c-4.5.145-6.856 4.036-6.586 8.5z" class="G"/><path d="M675.848 318.48a9.97 9.97 0 0 1-5.561-1.721s1.25 3.12 5.546 2.836l.015-1.115z" class="J"/><g class="B"><path d="M678.798 307.16c-.004.16-.07.312-.183.425a.62.62 0 0 1-.427.18.58.58 0 0 1-.23-.032c-.073-.026-.14-.067-.198-.12a.6.6 0 0 1-.136-.187.55.55 0 0 1-.05-.226.61.61 0 0 1 .605-.605.58.58 0 0 1 .23.032c.074.026.14.067.2.12a.55.55 0 0 1 .137.188.59.59 0 0 1 .054.226zm.275-1.3c-.075.08-.535-.275-1.196-.3s-1.15.305-1.22.22.045-.175.26-.325c.296-.197.646-.295 1-.28a1.64 1.64 0 0 1 .951.335c.18.16.245.305.205.34zm-6.56 1.3c-.003.16-.067.312-.18.425a.62.62 0 0 1-.425.18.58.58 0 0 1-.23-.032c-.074-.026-.142-.067-.2-.12s-.104-.116-.137-.187a.57.57 0 0 1-.053-.226.61.61 0 0 1 .605-.606.58.58 0 0 1 .23.032c.073.026.14.067.2.12a.55.55 0 0 1 .137.188.59.59 0 0 1 .054.226zm.07-1.33c-.075.08-.535-.275-1.195-.3s-1.15.305-1.22.225.045-.18.26-.33c.295-.198.646-.294 1-.275a1.6 1.6 0 0 1 .95.33c.18.16.245.305.205.34zm2.28 4.95a4.42 4.42 0 0 1 1.08-.165c.165 0 .325-.045.36-.16.017-.173-.02-.348-.105-.5l-.465-1.295a21.77 21.77 0 0 1-1.04-3.385c.523 1.06.96 2.16 1.3 3.3l.445 1.305a.97.97 0 0 1 .075.66c-.026.06-.066.112-.115.153a.41.41 0 0 1-.17.087 1.02 1.02 0 0 1-.285.035c-.363.04-.73.03-1.1-.025zm-1.953.42c.105 0 .1.715.7 1.24s1.366.46 1.37.56-.175.135-.5.135a1.79 1.79 0 0 1-1.146-.43 1.57 1.57 0 0 1-.535-1.03c-.035-.305.07-.48.12-.475zm-.403-7.482c-.07.18-.725.08-1.5.155s-1.406.27-1.5.105c-.045-.075.07-.245.325-.4a2.63 2.63 0 0 1 1.126-.365 2.54 2.54 0 0 1 1.17.165c.27.12.4.265.38.35zm6.37.216c-.12.145-.575 0-1.12-.04s-1 .075-1.116-.08c-.045-.08.03-.23.24-.365a1.55 1.55 0 0 1 .911-.225 1.51 1.51 0 0 1 .885.325c.2.165.25.32.2.386zm-19.928 6.82l.3-2.475c.15-1.44 3.196-6.626 3.196-6.626a18.21 18.21 0 0 1 3.755-5.571c1.636-1.535 3.826-2.57 6.046-2.4s4.376 1.75 4.876 3.96l-.375-.56c.085.78-.745 1.376-1.5 1.436s-1.53-.2-2.3-.235a4.62 4.62 0 0 0-2.16.602 4.63 4.63 0 0 0-1.624 1.548c-.814 1.306-1.304 2.787-1.43 4.32l-.43 4.58c-.245 1.625-1.16 2.186-2.386 3.26a23.86 23.86 0 0 0-3.175 3.42c-.2.24-.47.43-.763.554a2.09 2.09 0 0 1-.927.166c-.5-.105-.616-.83-.686-1.33s.286-1.095.306-1.85c-.23-.125-.423-.305-.565-.523a1.59 1.59 0 0 1-.251-.727 5.15 5.15 0 0 1 .095-1.561z"/></g><path d="M665.92 308.874c-.075-.03-2.93-.94-2.905 2s2.97 2.306 2.97 2.22l-.065-4.22z" class="G"/><path d="M665.08 311.99s-.05.035-.135.075a.49.49 0 0 1-.192.039c-.066 0-.132-.013-.193-.04-.2-.12-.345-.288-.45-.487a1.29 1.29 0 0 1-.145-.648 1.71 1.71 0 0 1 .135-.73.6.6 0 0 1 .385-.4c.06-.016.12-.01.176.015s.1.07.124.125c.04.08.025.14.04.145s.06-.05.04-.17c-.018-.073-.06-.138-.12-.185-.082-.06-.184-.085-.285-.07-.12.025-.232.08-.325.16s-.163.183-.205.3a1.73 1.73 0 0 0-.175.815 1.33 1.33 0 0 0 .189.746 1.32 1.32 0 0 0 .571.514c.08.024.16.028.242.015s.157-.047.223-.095c.095-.055.1-.12.1-.125z" class="J"/><g class="H"><path d="M660.57 314.495l-.055-.05a2.04 2.04 0 0 1-.155-.18 3.03 3.03 0 0 1-.445-.78c-.402-1.05-.375-2.216.075-3.246.3-.707.724-1.356 1.25-1.915.618-.614 1.27-1.192 1.956-1.73.355-.298.677-.634.96-1a4.41 4.41 0 0 0 .665-1.271c.28-.98.47-1.985.57-3 .126-1.045.432-2.06.905-3 .445-.873 1.1-1.63 1.88-2.206a4.87 4.87 0 0 1 2.456-.915c.768-.053 1.54.05 2.265.305a8.81 8.81 0 0 1 1.71.79 3.91 3.91 0 0 1 1.11.9 1.97 1.97 0 0 1 .4.8c.016.105.016.2 0 .316 0 0 0-.1-.045-.306a1.75 1.75 0 0 0-.41-.765 4.02 4.02 0 0 0-1.106-.845 9.26 9.26 0 0 0-1.695-.75 5.61 5.61 0 0 0-2.205-.27 4.72 4.72 0 0 0-2.355.9 6.03 6.03 0 0 0-1.811 2.141 9 9 0 0 0-.88 2.91 16.9 16.9 0 0 1-.585 3.05c-.16.475-.394.92-.695 1.32-.298.374-.633.717-1 1.025a22.9 22.9 0 0 0-1.956 1.7 6.44 6.44 0 0 0-1.24 1.85 4.28 4.28 0 0 0-.14 3.161 4.39 4.39 0 0 0 .585 1.06zm4.04 28.88l5.406 25.8-10.957-.125-4.636-22.878-9.72-.1c-.2-.002-.378-.042-.553-.117s-.334-.183-.466-.32a1.43 1.43 0 0 1-.411-1.03 1.46 1.46 0 0 1 1.465-1.436l19.873.225z"/></g><path d="M676.193 323.02l-10.552-2.925-6.065 3.5c-.506.635-4 3.746-3.97 8.146.03 2.75 2.405 12.672 2.405 12.672l8.807 15.462 2.715 7.622 13.157.035 5.17-7.49s.65-1.55-1.066-3.93-4.405-6.416-4.405-6.416-.795-4.836-1.645-6.616-.656-2.53-.656-2.53.5-4.83 0-7.236-1.83-7.962-3.895-10.292z" class="K"/><g class="B"><path d="M682.47 349.695a1.13 1.13 0 0 0 0-.26l-.125-.74-.58-2.696c-.342-1.327-.772-2.63-1.286-3.9-.3-.735-.425-1.53-.365-2.32l.22-2.576a23.68 23.68 0 0 0-1.36-8.961 21.06 21.06 0 0 0-1.09-2.55c-.14-.3-.275-.5-.355-.67a1.59 1.59 0 0 0-.14-.225.82.82 0 0 0 .1.245l.315.68c.386.836.728 1.692 1.025 2.565a24.65 24.65 0 0 1 1.285 8.906l-.22 2.576a5.26 5.26 0 0 0 .395 2.4 33.72 33.72 0 0 1 1.321 3.865l.65 2.676.165.73a1.23 1.23 0 0 0 .045.255zm-3.713-18.558c.606 2.603.775 5.288.5 7.947-1.678.288-3.312.792-4.86 1.5l-.47-8.15a.63.63 0 0 1 .007-.263.61.61 0 0 1 .113-.237.6.6 0 0 1 .35-.13l4.406-.66"/></g><path d="M689.03 341.674l-7 6.03.37 2 2.53 3.956s1.035.76 3.395-2.33 5.096-9 5.096-9l-4.39-.655z" class="G"/><path d="M702.26 327.822a.71.71 0 0 0-.257-.259c-.107-.062-.23-.095-.353-.096l-4.265-.045c-.2-.001-.377.04-.55.116a1.32 1.32 0 0 0-.451.334L685.76 339.94l.6.475 4.626.525 11.36-12.937-.095-.18z" class="B"/><path d="M699.03 329.117c.052.044.12.065.188.06s.13-.035.177-.086a.26.26 0 0 0 .08-.35c-.05-.046-.115-.07-.182-.07a.27.27 0 0 0-.183.071c-.03.02-.056.044-.076.074s-.035.062-.042.097-.008.07-.001.106.02.068.04.098z" class="E"/><path d="M702.356 328.002a5 5 0 0 1-.83.04h-3.835a.85.85 0 0 0-.7.285l-.6.695-2.72 3.1-5 5.576-1.535 1.67a5.82 5.82 0 0 1-.585.59 5.2 5.2 0 0 1 .5-.655l1.475-1.725 4.93-5.626 2.736-3.075.62-.7a1.07 1.07 0 0 1 .393-.271c.15-.06.31-.085.472-.074l1.565.03 2.27.065c.287.005.572.03.855.075z" class="H"/><path d="M697.015 332.088s-.365-.12-.72.865l-1.445 3.815-1.8-1.325-2.5-.04s-.605.4-.255.735a8.7 8.7 0 0 0 1.856.83l.895 1.806-3.036-2.056s-1.13.12-.9.835 2.115 3.12 2.115 3.12l-1.62-.37-1.77-1.465s-.6-.065-.455.5 1.9 2.675 1.9 2.675l2.28 1.555s1.355.095 1.54-.28a4.54 4.54 0 0 0 .305-.93s.74-.1.925-.415c.12-.28.178-.58.175-.885 0 0 1.1.365 1.32-.24a7.2 7.2 0 0 0 .255-2.341c-.045-.5 1.205-4.86 1.18-5s.5-1.58-.235-1.4z" class="G"/><g class="J"><path d="M693.2 343.284a1.32 1.32 0 0 1-.665.105c-1.116.003-2.2-.425-3-1.195-.3-.3-.435-.5-.4-.535.577.47 1.2.87 1.885 1.185a8.9 8.9 0 0 0 2.2.44zm-.44-.964c-.045.05-.445-.24-.856-.7s-.66-.875-.605-.92.395.3.796.75.695.8.665.86zm1.585-1.926c-.045.05-.445-.235-.82-.705s-.57-.915-.5-.95.345.34.7.8.66.8.6.865zm1.6-1.506a6.58 6.58 0 0 1-.565-1.04c-.3-.56-.64-.975-.585-1.025s.5.305.8.9a1.94 1.94 0 0 1 .34 1.165z"/></g><path d="M662.336 323.886c-.516-.413-1.165-.62-1.825-.585a2.69 2.69 0 0 0-1.751.78c-1.8 1.796-4.405 4.81-4.5 7.256-.12 3.746-.725 13.652-.725 13.652l13.772-.5s0-13.167-1.21-16.187c-.665-1.7-2.4-3.32-3.76-4.416z" class="K"/><g class="G"><path d="M655.204 345.084s.32 7.612 1.686 10.927c1.415 3.425 3.165 3.115 4.67 3s23.12-15.812 23.12-15.812l-3.27-4.23-16.852 7.886-.2-2.116-9.142.345z"/><path d="M681.258 339.133l3.45-5.9 3.686-1.446 4.726-.165c.078.21.08.438.008.648a.95.95 0 0 1-.408.502l1.64-.145c.06.113.098.237.1.364s-.004.256-.044.377-.106.233-.19.33-.19.172-.305.226l1.195.035c-.104.36-.325.677-.628.9a1.7 1.7 0 0 1-1.047.326c-1.172.01-2.34.1-3.5.27l-2.095 1.6 3.405-.635 2.53.105s.42.58-.115.8c-.887.2-1.79.342-2.7.395l-3.13 1.325s-.4 2.196-.74 2.72-2.59 1.47-2.59 1.47l-3.255-4.09z"/></g><g class="J"><path d="M694.385 332.617a6.38 6.38 0 0 1-1.27.14l-3.08.15-1.155.04h.05l-2.105.9c-.272.14-.56.242-.86.305.247-.178.514-.327.795-.445l2.065-1h.025l1.15-.05 3.08-.075a6.19 6.19 0 0 1 1.305.025zm.48 1.32a5.5 5.5 0 0 1-1.16.09l-2.8.035h-1.03c-.8.506-1.66.95-2.536 1.33.768-.57 1.575-1.088 2.416-1.545h1.15l2.8.04a5.06 5.06 0 0 1 1.16.05z"/><path d="M684.534 343.224l.355-.18 1-.5.715-.42a2.92 2.92 0 0 0 .365-.29 1.19 1.19 0 0 0 .235-.43 17.05 17.05 0 0 0 .56-2.371v-.045h.045l3.126-1.34h.03l1.755-.195a4.64 4.64 0 0 0 .895-.195c.06-.017.1-.05.15-.1s.06-.105.066-.166a.69.69 0 0 0-.135-.385l.1.045-2.5-.1-3.37.64-.5.1.42-.32 2.095-1.6h.03l2.71-.265h.775a1.76 1.76 0 0 0 .685-.12 1.63 1.63 0 0 0 .545-.407c.15-.172.263-.374.33-.593l.12.155-1.2-.035h-.44l.38-.22c.203-.107.36-.285.44-.5.033-.105.044-.215.034-.324a.82.82 0 0 0-.094-.312l.12.06-2.1.186.37-.26c.165-.11.292-.266.365-.45a.85.85 0 0 0 0-.555l.115.07-4.726.16h.035l-3.7 1.426.04-.035-2.56 4.3-.705 1.16-.2.295-.07.1s0-.04.05-.1.095-.185.165-.315l.665-1.18 2.5-4.35v-.025h.03l3.675-1.456 4.726-.18h.085l.03.075c.085.236.085.494 0 .73s-.247.433-.455.57l-.08-.22 1.645-.15h.08l.035.07a1.1 1.1 0 0 1 .085.836c-.103.27-.3.493-.555.63l-.06-.235 1.2.035h.17l-.05.155a1.87 1.87 0 0 1-.372.696c-.173.203-.387.366-.628.48a1.9 1.9 0 0 1-.795.14h-.755a29.75 29.75 0 0 0-2.681.26l.055-.025-2.095 1.6-.1-.22 3.44-.75 2.53.1h.06l.03.045c.11.154.17.34.17.53-.005.102-.042.2-.105.28s-.148.14-.245.17a4.84 4.84 0 0 1-.945.205l-1.775.185h.03l-3.136 1.305.045-.06a15.93 15.93 0 0 1-.6 2.386 1.3 1.3 0 0 1-.27.47 2.87 2.87 0 0 1-.39.295 7.49 7.49 0 0 1-.735.41l-1.04.5-.275.1c-.04 0-.07.01-.075.005z"/></g><path d="M653.3 344.99a1.54 1.54 0 0 1 .235-.03l.665-.04 2.5-.12 8.546-.33-.12.12-.055-3.785-.42-6.106-.165-2.665c-.063-.77-.182-1.534-.355-2.286-.243-1.092-.697-2.126-1.335-3.045-.247-.33-.51-.644-.8-.945a1.3 1.3 0 0 1 .25.2c.224.21.432.44.62.685.678.913 1.164 1.954 1.43 3.06.188.76.32 1.532.4 2.3l.2 2.666.44 6.116.05 3.92h-.13l-8.54.235-2.5.05h-.67a.97.97 0 0 1-.235-.01z" class="B"/></g><mask id="C" mask-type="alpha" maskUnits="userSpaceOnUse" x="832" y="59" width="64" height="64"><circle cx="864" cy="91" r="32" class="Q"/></mask><g mask="url(#C)"><circle cx="864.485" cy="90.515" r="32.485" fill="#fa3867"/><path d="M866.292 100.2l-5.707 8.775-8.312-3.536-4.722-2.47-5.77.638 8.15 5.023 7.958 7.472c.51.6 1.16 1.066 1.89 1.36s1.52.4 2.305.335a4.91 4.91 0 0 0 2.199-.768 4.9 4.9 0 0 0 1.595-1.696l6.466-11.498-6.052-3.635z" class="G"/><g class="B"><path d="M837.36 109.668s-4.38.34-5.944 1.37-21.04 16.14-21.04 16.14l5 7.122 13.214-6.906 8.76-17.725z"/><path d="M883.99 126.93l-2.093 8.43c-.607 1.582-6.816 5.172-14.4 3.23-7.836-2.004-26.51-17.164-26.51-17.164l-1.864 1.37-11.682 10.837s-6.7-2.763-6.7-5.53c0 0 14.18-21.643 15.474-22.052s2.62-.81 4.187-.48 25.16 13.264 25.16 13.264l18.426 8.096z"/></g><g class="H"><path d="M827.463 133.634l-.162-.05-.45-.175c-.583-.223-1.152-.48-1.703-.773a13.07 13.07 0 0 1-2.413-1.599 9.39 9.39 0 0 1-1.258-1.272 5.76 5.76 0 0 1-1.002-1.71v-.063l4.583-6.77c2.696-3.96 5.194-7.504 7.054-10.033l2.246-2.975.62-.8.162-.202c.04-.05.06-.072.063-.067l-.045.076-.153.216-2.772 3.828c-1.828 2.543-4.3 6.097-7.004 10.055l-4.6 6.763v-.068c.227.604.553 1.166.966 1.663.368.458.78.88 1.226 1.262a13.52 13.52 0 0 0 2.377 1.618 17.93 17.93 0 0 0 1.676.808l.45.198.14.072zm13.433-15.546a3.59 3.59 0 0 0 .104 3.383c.067-.027-.22-.75-.243-1.685s.207-1.676.14-1.698z"/><path d="M839.257 118.717a5.99 5.99 0 0 0 1.55 2.696 7.9 7.9 0 0 0-.751-1.348c-.225-.473-.493-.924-.8-1.348z"/></g><path d="M869.517 84.48c.485 1.402-.364 2.898-1.28 4.066s-1.986 2.395-2.004 3.877a8.46 8.46 0 0 0 .503 2.341c.272.76.246 1.595-.072 2.336-.45.81-1.424 1.218-1.833 2.044-.136.306-.206.636-.206.97s.07.665.206.97c.28.608.645 1.174 1.083 1.68.206.265.512.557.826.45.183-.094.323-.255.39-.45 1.726-3.47 3.352-6.984 4.88-10.545.368-.75.612-1.554.723-2.38.14-1.734-.898-3.4-.72-5.144" class="B"/><path d="M850.916 105.957a43.61 43.61 0 0 0-7.148-1.901c-.15.157.05.688.23.822a1.76 1.76 0 0 0 .696.319c.244.028.482.093.706.194.298.206.532.492.673.826.643 1.043 2.157 1.72 3.64 1.63" class="G"/><path d="M849.71 107.848a.6.6 0 0 1-.152.022 3.07 3.07 0 0 1-.45 0 4.54 4.54 0 0 1-1.581-.372c-.348-.15-.672-.352-.962-.598a3.4 3.4 0 0 1-.449-.449c-.13-.176-.238-.378-.35-.562a1.15 1.15 0 0 0-.45-.449c-.218-.082-.446-.138-.678-.167-.256-.062-.496-.176-.706-.336-.106-.098-.186-.22-.233-.355-.058-.133-.084-.278-.077-.423.007-.063.034-.123.077-.17l.027-.03h.05c1.727.293 3.43.714 5.095 1.258l1.5.512a3.24 3.24 0 0 1 .539.22c-.2-.038-.378-.09-.56-.152l-1.515-.45c-1.667-.5-3.366-.913-5.086-1.204l.077-.027c-.013.023-.022.047-.027.072.002.228.088.447.242.616.19.143.404.247.634.305a2.93 2.93 0 0 1 .714.184c.223.112.407.29.526.508.352.7.942 1.274 1.667 1.595.485.222 1.005.362 1.536.414l.593.04z" class="J"/><path d="M855.768 114.538a1.19 1.19 0 0 0 .171-.441 1.2 1.2 0 0 0-.207-.906 1.19 1.19 0 0 0-.346-.324l-14.14-8.7-2.58-17.702c-.036-.242-.16-.463-.346-.62s-.425-.242-.67-.238a1.01 1.01 0 0 0-.741.351 1 1 0 0 0-.234.786l2.476 18.597 16.615 9.188z" class="H"/><g class="K"><path d="M882.304 86.398c.4.386 5.913 2.525 6.417 7.04.224 2.017-5.024 35.944-5.024 35.944l-.615.175c-1.77.518-3.653.485-5.403-.093a9.09 9.09 0 0 1-4.397-3.142l-1.033-1.388a13.47 13.47 0 0 0-2.97-2.902l-5.57-4.242 4.043-3.716-.395-4.13s-1.797-6.335-.79-9.503 5.778-9.82 5.778-9.82l2.364-2.66 7.597-1.564z"/><path d="M884.214 88.3s-5.544-1.348-6.932 4c-1.004 3.66-2.235 7.25-3.685 10.756l12.698 2.67s4.147-14.095-2.08-17.415z"/></g><g class="B"><path d="M871.997 109.016c-.2.004-.4-.037-.584-.12-.92-.326-1.7-.96-2.206-1.797-.115-.165-.196-.352-.238-.548a5.74 5.74 0 0 0 3.028 2.462v.004zm14.688-5.516a2.31 2.31 0 0 1 .085-.481l.247-1.294a24.03 24.03 0 0 0-.063-8.636l-.27-1.3a2.96 2.96 0 0 1-.1-.476c.066.145.118.295.157.45.095.297.207.737.328 1.28a21.75 21.75 0 0 1 .45 4.34 21.45 21.45 0 0 1-.409 4.349l-.306 1.285c-.03.16-.075.318-.13.472zm-.39 2.214c-.085-.001-.17-.013-.252-.036l-.728-.135-2.695-.54-9.054-1.874h-.103l.036-.098.764-2.103 1.693-5.666.32-1.294.4-1.195.45-1.092a5.47 5.47 0 0 1 .485-.975 5.25 5.25 0 0 1 1.348-1.316c.386-.27.804-.493 1.244-.66a3.57 3.57 0 0 1 .863-.216 1.38 1.38 0 0 1 .315 0s-.108 0-.3.036a3.87 3.87 0 0 0-.841.243 6 6 0 0 0-1.213.678 5.13 5.13 0 0 0-1.28 1.303 5.5 5.5 0 0 0-.45.962l-.45 1.087c-.162.382-.265.773-.382 1.186l-.3 1.294-1.68 5.683-.77 2.107-.062-.116 9.017 1.914 2.696.588.72.167a1.65 1.65 0 0 1 .238.067z"/></g><g class="E"><path d="M886.793 102.515c-.78.247-1.622.5-2.394.234a9.14 9.14 0 0 1-1.57-.948c-.925-.53-2.04-.603-3.1-.733s-2.188-.377-2.934-1.146c.737.234 1.523-.03 2.296-.058a7.05 7.05 0 0 1 1.434.148l3.5.593a3.42 3.42 0 0 0 .957.072c.332-.036.65-.166.984-.188a.79.79 0 0 1 .831.449m-10.594-6.084c.1-.238.103-.476.193-.7l.17-.058c1.193.01 2.374.234 3.486.665a7.38 7.38 0 0 0 1.798.598c.754.1 1.554-.14 2.273.117-.647.602-1.622.692-2.498.58-.863-.183-1.736-.315-2.615-.395-.845 0-1.707.234-2.525 0-.13-.025-.245-.1-.333-.2-.04-.098-.058-.204-.05-.3a.67.67 0 0 1 .099-.297zm-6.088-.924c.275.605.586 1.193.93 1.76.172.258.4.465.692.598a3.02 3.02 0 0 0 .813.112 3.01 3.01 0 0 1 1.604.638l-1.276.112c-.786.05-1.676 0-2.22-.57a6.89 6.89 0 0 1-.998-1.945l.454-.705zm-1.07 6.96c0-.054.076-.072.13-.086l.935-.233c.46-.137.936-.214 1.415-.23.616 0 1.3.185 1.797-.157a5.1 5.1 0 0 0 .553-.53 1.8 1.8 0 0 1 1.024-.449l-.638 1.316a.74.74 0 0 1-.696.386c-.28 0-.553-.085-.83-.112a5.07 5.07 0 0 0-1.797.292c-.58.2-1.217.2-1.798 0-.045-.067-.117-.13-.094-.197zm.545 4.74c.265.14.57.18.863.116.225-.08.404-.283.638-.314.508-.067.836.678 1.348.642.418-.03.606-.552.966-.763a.73.73 0 0 1 1.024.301.74.74 0 0 1 .077.386l-.45.935c-.364.382-.984.206-1.5.184l-.858.022a3.92 3.92 0 0 1-1.196-.287c-.578-.22-1.138-.484-1.676-.8-.45-.252-.898-.6-.957-1.087l1.73.656zm15.923 10.867c-.858-.058-1.658.414-2.494.638-2.184.6-4.493-.534-6.74-.274a19.25 19.25 0 0 0 3.146 1.447 8.25 8.25 0 0 0 4.043.548 11.4 11.4 0 0 1 1.923-.328m-14.26.908a4.73 4.73 0 0 0 1.698 1.518c.713.473 1.464.884 2.247 1.227 1.963.804 4.152.813 6.3.804a6.07 6.07 0 0 1-2.514 1.05c-.907.155-1.836.104-2.72-.152a3.63 3.63 0 0 0-.809-.189c-.5-.022-.957.225-1.447.265-.853.072-1.622-.5-2.296-1.02a15.53 15.53 0 0 1-3.239-3.104l2.458-.243"/></g><g class="M"><path d="M876.284 121.174c.898-.507 2.03-1.046 2.6-1.914.45-.656.476-1.54.818-2.246.466-.933.862-1.898 1.186-2.89l3.015-8.865.9.112c-.688 3.67-2.144 7.15-3.204 10.734a22.64 22.64 0 0 1-1.505 4.251c-.706 1.348-1.797 2.525-3.235 2.983s-3.213 0-3.977-1.298a5.74 5.74 0 0 0 3.393-.868z" fill="#000" class="M"/></g><path d="M875.42 103.53l-3.338 8.087-14.602-2.804-6.452-5.014-1.798.247-2.943-.076-2.615 1.41-.45.076 12.176 7.54 14.14 8.052a6.85 6.85 0 0 0 6.385.651c.883-.358 1.682-.898 2.345-1.583a6.85 6.85 0 0 0 1.505-2.397l4.556-12.365-8.9-1.824z" class="G"/><g class="J"><path d="M843.84 105.296c.255-.095.52-.163.8-.202l1.937-.364.705-.117h.04l1.406.45a2.56 2.56 0 0 1 .544.225 2.25 2.25 0 0 1-.575-.117l-1.425-.404h.04l-.706.126-1.945.314a3.38 3.38 0 0 1-.813.09zm.754.954a16.52 16.52 0 0 1 2.395-.126h.606c.565.232 1.1.512 1.627.835a11.43 11.43 0 0 1-1.7-.678h.036-.57c-.798.048-1.6.037-2.395-.03zm30.826-2.72a.75.75 0 0 1-.05.152l-.17.45-.66 1.658-2.386 5.863v.058h-.067l-7-1.348-7.598-1.473-4.65-3.662-1.3-1.034-.34-.278-.112-.103a.42.42 0 0 1 .13.08l.35.26 1.326 1.002 4.695 3.594h-.036l14.593 2.795-.1.045 2.448-5.84.893-2.094a1.09 1.09 0 0 1 .032-.125z"/><path d="M874.104 117.4c-.084-.295-.146-.595-.184-.9a14.31 14.31 0 0 0-1.496-4.134c-.167-.26-.317-.53-.45-.808.213.223.396.474.543.745a11.27 11.27 0 0 1 .971 2.009c.253.7.434 1.427.54 2.165.063.303.09.613.076.922z"/></g><path d="M882.345 110.68c.94.84 2.247 1.065 3.433 1.5.05 0 .103.044.112.094a.14.14 0 0 1-.009.061c-.008.02-.02.037-.036.05a1.27 1.27 0 0 1-.531.25 1.28 1.28 0 0 1-.587-.016c-.91-.076-1.814-.234-2.696-.472-.1-.027-.207-.072-.238-.166-.015-.077-.002-.157.036-.225l.512-1.226" class="E"/><path d="M880.395 66.975c-.247-.605-.43-1.234-.543-1.878a2.98 2.98 0 0 1 .314-1.901c.3-.448.728-.796 1.228-1s1.048-.25 1.576-.138a4.41 4.41 0 0 1 2.61 1.766c.387.512.706 1.168.508 1.797-.227.513-.644.92-1.164 1.132a10.88 10.88 0 0 1-4.16 1.218" class="B"/><g class="H"><path d="M883.504 62.248c.2.162.344.382.414.63.052.275.052.557 0 .83a3.56 3.56 0 0 1-.27.998 2.41 2.41 0 0 1-1.281 1.285c-.25.08-.507.14-.768.18.268.093.56.085.822-.022.322-.11.617-.286.865-.52s.443-.515.573-.83a3.36 3.36 0 0 0 .274-1.065c.04-.3.016-.607-.067-.9-.062-.204-.2-.38-.364-.503-.108-.1-.193-.1-.198-.085z"/><path d="M880.368 62.85c0 .04.23.067.575.184.453.146.872.38 1.23.692a3.66 3.66 0 0 1 .867 1.11c.167.328.23.553.266.544.022-.2-.017-.422-.113-.61a3.1 3.1 0 0 0-.867-1.222c-.385-.33-.844-.562-1.34-.674a1.21 1.21 0 0 0-.62-.023z"/></g><path d="M882.192 67.856c.243 0 .486.045.728.045.122.01.245-.01.356-.062s.207-.13.278-.23c.05-.113.068-.238.05-.36s-.074-.236-.157-.328a1.8 1.8 0 0 0-.611-.413l-2.215-1.12c-.14-.08-.292-.138-.45-.17a.51.51 0 0 0-.45.148c-.202.247 0 .62.216.836.407.37.86.7 1.348.948.33.2.645.446.94.705" class="K"/><g class="B"><path d="M868.973 68.157c-.64.432-1.142 1.036-1.45 1.742s-.412 1.485-.297 2.248c.135.575.395 1.15.283 1.73-.16.49-.406.946-.728 1.348-.44.73-.638 1.582-.565 2.433s.413 1.656.97 2.3 1.307 1.097 2.138 1.29a4.04 4.04 0 0 0 2.488-.211"/><path d="M868.115 75.67c-3.518-7.737 4.853-11.623 9.435-10.334 4.29 1.21 6.125 3.347 6.83 6.218.772 2.88.614 5.93-.45 8.717-.553 1.348-1.555 2.718-3.002 2.885"/></g><path d="M872.204 91.714l-.07-5.872c0 .022-3.177-.53-3.838-4.677-.328-2.062-.224-5.44-.05-8.204.157-2.49 1.797-5.54 4.286-5.28l7.737 1.954c.364.04.7.213.942.488s.373.63.366.995l-.508 16.01" class="G"/><g class="B"><path d="M869.162 75.678a.52.52 0 0 0 .142.37.53.53 0 0 0 .361.168c.067.006.135-.001.2-.022a.52.52 0 0 0 .176-.098c.05-.044.093-.098.124-.158s.048-.127.053-.194a.53.53 0 0 0-.504-.538c-.067-.006-.135.001-.2.022a.5.5 0 0 0-.3.256.49.49 0 0 0-.053.194zm5.438 0a.52.52 0 0 0 .142.37.53.53 0 0 0 .361.168.51.51 0 0 0 .199-.023.49.49 0 0 0 .174-.098.5.5 0 0 0 .175-.351.53.53 0 0 0-.14-.373c-.093-.1-.224-.16-.362-.166a.51.51 0 0 0-.199.023.49.49 0 0 0-.174.098.5.5 0 0 0-.175.351zm-5.54-1.155c.063.072.476-.2 1.046-.193s.984.323 1.047.256-.03-.162-.2-.297a1.47 1.47 0 0 0-.836-.292c-.297-.01-.6.074-.835.243-.18.13-.243.252-.2.283zm5.43.14c.063.067.45-.234 1.038-.234s.993.283 1.056.2-.036-.153-.22-.288a1.47 1.47 0 0 0-.844-.256c-.3.001-.6.095-.832.27-.17.14-.233.265-.197.296zm-1.962 4.403a3.73 3.73 0 0 0-.93-.166c-.144 0-.283-.045-.3-.144a.75.75 0 0 1 .099-.449l.45-1.114a18.53 18.53 0 0 0 .971-2.911c-.483.92-.9 1.877-1.218 2.862l-.413 1.12a.82.82 0 0 0-.077.575c.02.05.053.097.094.134a.34.34 0 0 0 .144.077.94.94 0 0 0 .248.036 3.47 3.47 0 0 0 .943-.018z"/></g><g class="J"><path d="M872.132 85.84a10.55 10.55 0 0 0 5.554-1.483s-1.402 2.885-5.554 2.498V85.84zm.625-5.395a1.04 1.04 0 0 1 .413-.309c.162-.067.338-.092.512-.073a.94.94 0 0 1 .36.109.93.93 0 0 1 .287.242.6.6 0 0 1 .05.683c-.093.102-.214.174-.347.207a.7.7 0 0 1-.404-.018c-.27-.1-.52-.254-.732-.45-.065-.046-.122-.104-.166-.17a.19.19 0 0 1-.033-.106.19.19 0 0 1 .033-.106"/></g><g class="B"><path d="M874.213 79.46c-.094 0-.094.62-.625 1.06s-1.195.373-1.2.45.148.12.45.126a1.53 1.53 0 0 0 1.002-.346c.273-.224.448-.547.485-.9 0-.238-.072-.4-.112-.4zm.134-5.638c.06.153.63.08 1.3.162s1.218.265 1.303.126c.04-.067-.054-.216-.274-.364-.3-.2-.62-.308-.966-.342a2.32 2.32 0 0 0-1.016.12c-.247.1-.368.22-.346.296zm-5.157-.764c.103.13.494 0 .97 0s.877.085.967-.05c.04-.067 0-.198-.198-.32a1.37 1.37 0 0 0-.787-.21 1.4 1.4 0 0 0-.772.26c-.167.126-.207.256-.18.32z"/></g><path d="M880.844 76.55c.063-.03 2.22-.984 2.247 1.496s-2.472 2-2.476 1.927.23-3.424.23-3.424z" class="G"/><path d="M881.38 79.025l.116.063c.052.022.107.033.162.033s.11-.01.162-.033a1.07 1.07 0 0 0 .374-.415c.085-.17.124-.358.11-.547.005-.213-.038-.425-.126-.62a.49.49 0 0 0-.124-.204.5.5 0 0 0-.204-.124.22.22 0 0 0-.15.014c-.047.022-.084.06-.106.107-.03.067 0 .117-.027.12s-.054-.04-.036-.144c.014-.06.047-.114.095-.153.068-.052.153-.076.238-.067.1.02.196.065.275.132s.138.153.174.25c.107.213.16.45.157.687.014.22-.037.44-.147.632a1.13 1.13 0 0 1-.473.446c-.066.022-.136.027-.204.017s-.134-.036-.19-.076c-.072-.063-.085-.117-.076-.12z" class="J"/><g class="B"><path d="M888.8 87.648a7.18 7.18 0 0 0-1.015-1.725l-.202-.274c1.105-.8 1.554-2.13 1.348-3.8-.122-.997-.513-1.67-2.103-3.635-1.296-1.652-2.087-3.643-2.278-5.733l-1.1 3.145.45 3.648-1.055 2.17-.652.27-1.015-1.667c-.692 1.874-1.38 2.458-2.768 3.4s-3.05 1.424-3.94 3.572c-2.13 5.113.575 9.786.948 10.123 0 0 1.226-5.72 2.543-6.928 1.554-1.438 2.642-2.246 4.542-2.07 1.348.238 2.193.225 3.145 1.204.45.45.9 1.024 1.523 1.146a1.58 1.58 0 0 0 1.627-.898 2.56 2.56 0 0 0 .004-1.946zm-6.46-12.23c-.594-.04-.86.728-.9 1.317s-.252 1.348-.845 1.388c-.45.022-.795-.485-.83-.948s.117-.925.108-1.388a2.98 2.98 0 0 0-.345-1.154 2.97 2.97 0 0 0-.774-.922c-.602-.535-1.316-.935-1.954-1.424-1.48-1.137-2.885-2.323-3.285-4.143L868.4 71a3.94 3.94 0 0 1 .438-1.574c.255-.488.6-.918 1.04-1.26a8.02 8.02 0 0 1 2.934-1.456 11.29 11.29 0 0 1 5.436-.409 6.88 6.88 0 0 1 2.543 1.002c.77.5 1.435 1.152 1.95 1.914.502.774.777 1.672.794 2.594a4.94 4.94 0 0 1-.695 2.622"/></g><g class="H"><path d="M880.548 66.508c-2.153 1.1-4.533 1.686-6.95 1.707a3.38 3.38 0 0 0 1.065.094 10.75 10.75 0 0 0 2.565-.319c.838-.204 1.65-.506 2.418-.9.33-.147.634-.344.903-.584zm.818.75c-.074.54-.225 1.064-.45 1.56a4.13 4.13 0 0 1-1.078 1.348c-.537.476-1.203.78-1.914.874a3.6 3.6 0 0 1-2.076-.348 4.24 4.24 0 0 1-1.397-1.038 5.49 5.49 0 0 1-.831-1.397 1.2 1.2 0 0 0 .103.449 3.53 3.53 0 0 0 .602 1.065 4.17 4.17 0 0 0 1.429 1.132c.683.333 1.447.464 2.202.377a3.93 3.93 0 0 0 2.021-.934 4.2 4.2 0 0 0 1.092-1.46 3.62 3.62 0 0 0 .31-1.186c.023-.146.02-.296-.013-.44zm-8.668-1.228s-.12.1-.198.328a1.74 1.74 0 0 0-.013.923c.08.303.24.58.463.798.175.162.32.216.332.193-.245-.318-.438-.673-.57-1.05a3.86 3.86 0 0 1-.014-1.19zm-2.736 1.02c-.027 0-.117.157-.153.45-.044.393.033.8.22 1.14a1.93 1.93 0 0 0 .83.81c.265.135.45.148.45.117a3.24 3.24 0 0 1-1.088-1.038 3.3 3.3 0 0 1-.26-1.478z"/><path d="M875.628 95.623a9.04 9.04 0 0 1-.522-1.348 5.84 5.84 0 0 1-.164-2.389c.1-.8.385-1.567.808-2.255s.982-1.28 1.644-1.74 1.414-.78 2.206-.934c1.06-.238 2.22-.283 3.414-.485a7.8 7.8 0 0 0 1.797-.503c.595-.254 1.128-.632 1.564-1.1.443-.485.72-1.1.79-1.752a3.79 3.79 0 0 0-.342-1.838c-.494-1.128-1.298-1.995-1.842-2.934a7.18 7.18 0 0 1-.898-2.92l-.257-2.696a6.78 6.78 0 0 0-1.374-3.68c-.234-.275-.508-.513-.814-.705-.103-.067-.193-.103-.247-.135s-.085-.04-.1-.036a4.37 4.37 0 0 1 1.083.934 6.86 6.86 0 0 1 1.276 3.639l.23 2.696c.088 1.057.404 2.082.926 3.006.557.966 1.348 1.833 1.797 2.92.248.538.36 1.13.324 1.72-.068.604-.326 1.17-.737 1.618-.827.944-2.054 1.348-3.208 1.546l-3.424.503a6.07 6.07 0 0 0-2.808 1.406c-.696.616-1.24 1.385-1.586 2.246a5.9 5.9 0 0 0-.157 3.913c.13.468.336.91.61 1.312z"/></g></g><path fill="#99fca3" d="M358 392h67v67h-67z"/><g class="C D F"><path d="M367.77 415.73h44.666"/><path d="M368 405h34" class="I"/><path d="M367.77 424.104h44.666m-44.666 9.77h32.104"/></g><g class="B"><path d="M983.332 503.702l-2.73 118.066h-5.2l.33-117.766 7.6-.3zm18.818-1.314l25.32 119.38h5.8l-21.07-119.38h-10.05zm-47.466 1.314l-28.02 118.066h-5.8l25.42-118.55 8.402.485z"/><path d="M1035.03 373.906s32.1-1.83 28.9 35.307-5.04 74.8-16.98 87.66c-11.93 12.86-132.063 13.302-142.15 2.757s19.26-10.087 24.762-10.087 39.436 3.2 50.438-25.72 8.26-91.746 55.04-89.917z"/></g><path d="M1037.1 373.992s24.53 5.03 22.24 30.706c-2.28 25.676-8.7 70.628-20.64 82.087-11.94 11.46-58.587 13.96-83.92 12.388-29.35-1.843-47.867-7.43-47.867-7.43s-5.358 3.444-3.743 5.715 15.93 11.145 85.302 9.66 64.558-11.716 67.428-22.86 8.93-70.785 8.1-83.888c-.85-13.102-7.45-24.147-26.9-26.376z" class="H"/><path d="M968.157 265.014a18.58 18.58 0 0 1 21.433 7.144c3.1 4.8 3.83 10.83 6.987 15.59 2.243 3.358 5.563 5.83 8.303 8.802s5 6.9 4.3 10.887c-.66 3.73-3.82 7.045-3.2 10.788.6 3.5 4.3 5.787 5.07 9.273.84 4.1-3.1 7.93-7.24 8.573-4.147.643-8.262-.957-12.162-2.5s-8.045-3.086-12.174-2.343c-4.787.87-8.46 4.63-12.645 7.144a26.18 26.18 0 0 1-28.577-1.7c-3.144-2.415-5.9-6.16-5.13-10.002.715-3.63 4.287-6.144 5.23-9.702 1.514-5.287-2.858-10.688-2.215-16.16.886-7.345 10.002-10.702 13.26-17.332 1.586-3.187 1.73-6.902 3.115-10.174s5.043-6.187 8.3-4.786" class="B"/><path d="M965.072 331.855c.47-2.614-.372-13.616-.372-13.616s-9.745-1.23-10.173-11.188.57-32.864.57-32.864l17.96-8.573 15.717 17.86.3 48.28-24.004.1z" class="G"/><path d="M956.37 291.748c.003.244.078.48.215.683a1.23 1.23 0 0 0 .556.452 1.25 1.25 0 0 0 .713.07 1.24 1.24 0 0 0 .976-.965c.05-.24.028-.487-.062-.714a1.24 1.24 0 0 0-1.126-.784 1.27 1.27 0 0 0-1.272 1.258zm-.8-2.228c.158.17 1.1-.615 2.43-.672s2.33.63 2.472.443-.085-.386-.528-.7a3.2 3.2 0 0 0-1.982-.571 3.21 3.21 0 0 0-1.92.757c-.414.343-.543.67-.472.743zm15.374 2.228a1.23 1.23 0 0 0 .053.515 1.22 1.22 0 0 0 .258.448c.116.13.26.234.418.305a1.25 1.25 0 0 0 .507.108c.174 0 .347-.037.506-.108s.302-.175.418-.305.205-.282.26-.448a1.25 1.25 0 0 0 .053-.515c.018-.174 0-.35-.053-.515a1.25 1.25 0 0 0-.259-.449c-.116-.13-.26-.234-.418-.305a1.24 1.24 0 0 0-.506-.107c-.175 0-.347.036-.507.107s-.302.175-.418.305a1.23 1.23 0 0 0-.311.964zm-.57-1.972c.157.17 1.1-.615 2.43-.672s2.33.63 2.472.443-.086-.385-.53-.7a3.19 3.19 0 0 0-1.971-.571 3.28 3.28 0 0 0-1.93.743c-.4.357-.543.67-.472.757zm-5.015 11.488a7.91 7.91 0 0 0-2.172-.329c-.343 0-.672-.085-.73-.328-.032-.38.043-.76.215-1.1l.957-2.857a53.15 53.15 0 0 0 2.157-7.373c-1.08 2.3-1.983 4.697-2.7 7.144l-.93 2.858a2.3 2.3 0 0 0-.143 1.429.82.82 0 0 0 .222.329.81.81 0 0 0 .35.185 2.1 2.1 0 0 0 .571 0 7.69 7.69 0 0 0 2.2.043z" class="B"/><path d="M964.7 318.267a23.76 23.76 0 0 0 12.86-4.287s-3.03 7.26-12.746 6.673l-.114-2.386zm1.143-13.487c.082-.42.265-.815.534-1.15a2.63 2.63 0 0 1 1.009-.766c.272-.124.567-.187.865-.187s.593.063.864.187a1.43 1.43 0 0 1 .617.591 1.42 1.42 0 0 1 .169.838c-.08.333-.26.635-.515.864s-.574.377-.914.422c-.664.088-1.34.04-1.986-.143-.182-.028-.356-.1-.514-.186a.48.48 0 0 1-.178-.203c-.038-.083-.05-.177-.036-.268" class="J"/><g class="B"><path d="M969.158 301.22c.086 0 .243.357.2 1a3.56 3.56 0 0 1-1.1 2.258 3.5 3.5 0 0 1-2.3.957c-.657 0-1.03-.17-1-.257s1.557-.086 2.786-1.243 1.2-2.73 1.414-2.715zm-14.874-28.162a11.95 11.95 0 0 0 3.93 7.468c2.174 1.928 4.98 2.997 7.885 3.006l-2.7-5.944c2.4 2.786 4.887 5.715 8.187 7.315s7.602 1.858 10.402-.542c.915 2.443.9 5.143 1.743 7.6s2.858 12.63 5.373 12.23 4.043-10.588 4.644-12.86c.72-3.23.674-6.584-.138-9.793s-2.364-6.183-4.535-8.682c-2.557-2.982-5.773-5.33-9.394-6.858s-7.545-2.192-11.467-1.943c-3.496.154-6.867 1.342-9.687 3.415-2.4 1.92-4.088 4.608-4.758 7.615"/><path d="M940.938 317.924c-.235-.015-.467-.068-.686-.157-.635-.192-1.248-.45-1.828-.772a12.96 12.96 0 0 1-5.201-5.086c-.94-1.593-1.5-3.376-1.67-5.22a12.34 12.34 0 0 1 .754-5.426 13.8 13.8 0 0 1 3.644-5.344c1.738-1.58 3.87-2.662 6.172-3.13a5.3 5.3 0 0 0 2.858-1.358 4.83 4.83 0 0 0 1.1-2.857c.172-2.1-.657-4.144-.886-6.2a9.13 9.13 0 0 1 1.158-5.716 9.23 9.23 0 0 1 3.7-3.515c1.43-.728 2.7-1.2 3.8-1.686a14.16 14.16 0 0 0 2.743-1.429 9.63 9.63 0 0 0 1.872-1.83 2.83 2.83 0 0 1-.328.615 5.88 5.88 0 0 1-1.429 1.429 13.96 13.96 0 0 1-2.744 1.586l-3.715 1.757c-1.432.78-2.616 1.95-3.415 3.372-.925 1.618-1.287 3.498-1.028 5.344.228 1.958 1.1 4 .943 6.344a5.47 5.47 0 0 1-1.286 3.315c-.895.847-2.026 1.4-3.244 1.586-2.103.443-4.062 1.407-5.696 2.802s-2.894 3.178-3.663 5.185c-.63 1.64-.893 3.4-.768 5.154a11.95 11.95 0 0 0 1.497 4.991c1.14 2.1 2.83 3.87 4.887 5.1 1.514.83 2.457 1.072 2.457 1.143zm64.682 13.088l2.32-1.628a13.63 13.63 0 0 0 4.88-5.716c.65-1.613.75-3.396.3-5.072-.26-.908-.75-1.73-1.43-2.386-.77-.677-1.63-1.253-2.54-1.715-1.06-.567-1.95-1.398-2.58-2.413-.64-1.015-1-2.177-1.05-3.374-.1-2.586 1.5-4.73 2.07-7.03.5-2.312.1-4.723-1.07-6.772a17.4 17.4 0 0 0-4.29-5.073c-3.27-2.743-6.686-4.758-9.043-7.144-1.943-1.776-3.4-4.026-4.2-6.53a9.22 9.22 0 0 1-.343-2.1 2.5 2.5 0 0 1 0-.743 18.14 18.14 0 0 0 .572 2.757 15.58 15.58 0 0 0 4.286 6.244c2.343 2.244 5.716 4.173 9.12 6.96a18.03 18.03 0 0 1 4.44 5.244 10.23 10.23 0 0 1 1.16 7.3c-.66 2.5-2.2 4.558-2.07 6.83.03 1.1.36 2.2.96 3.128s1.43 1.698 2.42 2.202c.97.496 1.86 1.1 2.67 1.83.74.747 1.27 1.672 1.55 2.686a8.57 8.57 0 0 1-.37 5.43 11.25 11.25 0 0 1-2.59 3.672 18.21 18.21 0 0 1-2.7 2.1c-.77.5-1.42.857-1.8 1.072a2.74 2.74 0 0 1-.66.242zm-51.664-46.037c1.38-1.148 2.353-2.712 2.77-4.458a24.39 24.39 0 0 0 .643-5.301c0-.514 0-1.186-.543-1.315s-.885.358-1.114.8a17.14 17.14 0 0 0-1.757 10.787l.314-.3"/></g><path d="M929.02 614.695l-.27-12.86 24.062-.657.585 18.8-1.428.142c-6.63.543-33.75 2.315-38.222 1.086-5.044-1.357 15.274-6.5 15.274-6.5z" class="K"/><g class="E"><path opacity=".25" d="M944.668 620.04c.3-2.043 1.35-3.902 2.943-5.215a8.03 8.03 0 0 1 5.573-1.901l.186 6.716-8.702.4z"/><path opacity=".16" d="M919.105 617.567s-7.144 2.258-6.187 3.415 28.39.4 40.48-1v-.53l-32.05 1.158s-.843-3.03-2.244-3.044z"/></g><g class="B"><path d="M953.798 619.425h-.415l-1.186.1-4.372.314c-3.686.23-8.787.486-14.43.657s-10.745.186-14.446.157h-4.372 4.372c3.7 0 8.802-.1 14.446-.257l14.43-.557 4.372-.23h1.186l.415-.185z"/><path d="M921.335 620.982a10.47 10.47 0 0 0-.886-2.072c-.44-.604-.955-1.15-1.53-1.63a3.87 3.87 0 0 1 2.415 3.701zm7-3.802c-.072 0-.43-.357-.786-.9s-.614-1.014-.543-1.072.414.372.786.915a2.86 2.86 0 0 1 .543 1.057zm1.914-1.085c0 .072-.443-.17-.857-.543s-.73-.7-.686-.757.443.172.872.543.728.7.67.757zm1.172-2.3a2.76 2.76 0 0 1-1.257.2 3.22 3.22 0 0 1-1.258-.1c.818-.234 1.68-.268 2.515-.1z"/><path d="M931.794 612.18a2.34 2.34 0 0 1-1.429.443c-.48.1-.976.04-1.428-.143.47-.1.95-.14 1.428-.142a9.54 9.54 0 0 1 1.429-.158zm-4.344 2.92c-.5.084-1.032.084-1.543 0a9.52 9.52 0 0 1-1.657-.315c-.326-.086-.642-.205-.943-.357a.88.88 0 0 1-.4-.472c-.03-.114-.023-.234.015-.345a.61.61 0 0 1 .199-.283 2.85 2.85 0 0 1 3.529.7c.245.298.425.643.53 1.014a.97.97 0 0 1 0 .429c-.172-.472-.424-.912-.743-1.3-.357-.402-.824-.7-1.343-.83a2.44 2.44 0 0 0-1.843.172c-.23.2-.13.485.142.642a4.72 4.72 0 0 0 .886.343 9.4 9.4 0 0 0 1.6.372c.986.2 1.57.17 1.57.23z"/><path d="M927.065 615.195a1.43 1.43 0 0 1-.215-1.071c.04-.406.17-.797.386-1.144.126-.232.308-.43.53-.57a1.55 1.55 0 0 1 .741-.243c.158.028.3.117.393.248s.132.293.107.452c-.037.246-.12.484-.243.7a4.76 4.76 0 0 1-.714.943 2.17 2.17 0 0 1-.858.658s.3-.286.715-.786c.23-.297.436-.612.614-.943.2-.343.33-.93 0-.986s-.77.37-1 .686c-.205.306-.346.65-.414 1.014a4.44 4.44 0 0 0-.043 1.043zm26-2.343s-.686 0-1.772.114c-1.417.2-2.75.78-3.844 1.702a7.51 7.51 0 0 0-2.328 3.499c-.33 1.043-.358 1.73-.4 1.73s0-.17 0-.486a5.69 5.69 0 0 1 .23-1.3 7.34 7.34 0 0 1 2.33-3.658c1.137-.946 2.53-1.533 4-1.686a5.79 5.79 0 0 1 1.329 0c.156.005.3.034.457.086zm-2.772-9.945c.22 1.64.333 3.3.342 4.944a39.98 39.98 0 0 1 0 4.944 41.89 41.89 0 0 1-.342-4.93 44.09 44.09 0 0 1 0-4.958zm-8.7 14.86a12.54 12.54 0 0 1-3.501.443c-1.18.095-2.365.037-3.53-.17 0-.086 1.586 0 3.515-.115l3.515-.157zm4.714-.127l-.272.7c-.157.37-.228.686-.314.686s-.13-.386 0-.8.53-.643.586-.585zm1.786-2.26s-.085.3-.328.557-.486.43-.543.372.086-.3.328-.572.415-.414.543-.357zm2.444-1.085c0 .086-.33.086-.686.214s-.6.343-.657.286.13-.4.557-.557.815-.014.786.057zm1.844-.53c0 .072-.1.2-.3.286s-.386.086-.415 0 .1-.2.3-.286.415-.07.415 0z"/></g><path d="M870.925 545.954l5.573-11.574 21.76 10.316-7.987 17.018-1.43-.558c-6.16-2.5-31.15-13.202-34.578-16.317-3.8-3.472 16.66 1.115 16.66 1.115z" class="K"/><g class="E"><path opacity=".25" d="M882.456 557.798c1.193-1.678 2.964-2.86 4.972-3.314 1.98-.464 4.06-.168 5.83.828L890.4 561.4l-7.944-3.6z"/><path opacity=".16" d="M860.766 544.025s-7.36-1.2-7.06.242 25.134 13.203 36.55 17.432l.2-.5-29.09-13.474s.643-3.043-.6-3.7z"/></g><g class="B"><path d="M890.8 561.356c-.134-.022-.264-.066-.385-.128l-1.115-.443-4.086-1.7c-3.4-1.428-8.06-3.543-13.174-5.958s-9.674-4.686-12.946-6.387l-3.886-2.03-1.043-.57-.357-.23.385.172 1.072.514 3.915 1.957 12.988 6.316 13.13 6.015 3.987 1.786 1.086.5.428.185z"/><path d="M861.2 548.082a9.91 9.91 0 0 0 .157-2.229 10.71 10.71 0 0 0-.63-2.157 3.34 3.34 0 0 1 .915 2.13 3.17 3.17 0 0 1-.443 2.257zm7.957-.214c-.086 0-.214-.514-.286-1.157s-.085-1.186 0-1.2c.176.362.273.756.286 1.158.086.657.086 1.186 0 1.2zm2.2-.1c-.07 0-.3-.357-.528-.87s-.33-.958-.243-.986.3.357.514.87.33.958.257.986zm2.087-1.528a2.85 2.85 0 0 1-2.286-1.043 2.85 2.85 0 0 1 1.2.386c.643.3 1.13.586 1.086.657z"/><path d="M874.525 544.982a3.65 3.65 0 0 1-1.44-.242 3.64 3.64 0 0 1-1.23-.787l2.67 1.03zm-5.2.643a4.48 4.48 0 0 1-1.429-.672 9.31 9.31 0 0 1-1.343-1.03 5.86 5.86 0 0 1-.686-.757.83.83 0 0 1-.129-.6.57.57 0 0 1 .164-.303c.084-.082.192-.136.308-.154a2.86 2.86 0 0 1 1.235.256 2.85 2.85 0 0 1 1.005.763 2.86 2.86 0 0 1 .578 1.121c.107.412.12.843.04 1.26 0 .257-.128.4-.142.385a4.12 4.12 0 0 0-.072-1.43 2.86 2.86 0 0 0-.829-1.343c-.225-.222-.493-.396-.788-.5s-.6-.17-.926-.16c-.3 0-.343.357-.157.614a4.92 4.92 0 0 0 .614.715c.396.384.82.738 1.272 1.057l1.286.786z"/><path d="M868.94 545.525c-.04-.376.062-.753.286-1.058.224-.342.522-.63.872-.843a1.55 1.55 0 0 1 1.499-.157.63.63 0 0 1 .128.857 1.73 1.73 0 0 1-.528.501 4.78 4.78 0 0 1-1.072.543 2.38 2.38 0 0 1-1.057.185s.386-.114.986-.386c.347-.15.677-.337.986-.557.328-.2.714-.67.385-.9a1.42 1.42 0 0 0-.617-.055 1.43 1.43 0 0 0-.583.212 2.98 2.98 0 0 0-.83.715c-.188.295-.34.612-.457.943zm24.233 9.673s-.586-.357-1.63-.7c-1.348-.466-2.8-.54-4.2-.214a7.54 7.54 0 0 0-3.656 2.057c-.786.772-1.114 1.43-1.157 1.357a1.51 1.51 0 0 1 .214-.442 6.55 6.55 0 0 1 .786-1.058c.998-1.093 2.302-1.86 3.743-2.2a7.34 7.34 0 0 1 4.33.299 6.2 6.2 0 0 1 1.172.6c.27.17.4.286.386.3zm2.043-10.116a42.03 42.03 0 0 1-1.93 4.558 42.92 42.92 0 0 1-2.186 4.429c.553-1.556 1.197-3.078 1.93-4.558.635-1.52 1.365-3 2.186-4.43zm-14.504 9.302a13.43 13.43 0 0 1-3.315-1.186 14.31 14.31 0 0 1-3.072-1.758c0-.07 1.43.686 3.187 1.5l3.2 1.444zm4.273 2.014c0 .086-.257.243-.557.5s-.515.515-.586.472 0-.4.4-.686.73-.357.743-.286zm2.558-1.243c0 .086-.23.243-.557.357s-.63.172-.658.086.23-.228.558-.357.628-.157.657-.086zm2.727.185s-.342-.086-.714-.114-.686 0-.714 0 .285-.286.757-.23.73.286.67.343zm1.845.344s-.186.13-.4.114-.386-.1-.37-.17.185-.143.385-.13.386.1.386.186z"/></g><path d="M1029.53 377.793l-5.12-25.72c-3.7-20.947-33.148-22.376-33.148-22.376l-23.176-.386s-17.146-2.3-27.705 9.616l-24.376 26.92 10.26 25.82 24.3-20.004c-2.03 3.563-3.15 7.573-3.257 11.674 0 6.844 7.144 10.002 7.144 10.002l2.214 20.76-7.144 33.62 75.46-3.03c-1.28-11.277-5.1-22.117-11.16-31.706l1.43-35.192h14.3z" class="K"/><g class="B"><path d="M997.192 349.03c.203.53.337 1.08.4 1.643l.886 4.5 2.862 14.86 2.65 14.917a103.05 103.05 0 0 1 .66 4.544c.1.556.14 1.122.1 1.686-.2-.532-.32-1.083-.38-1.643l-.9-4.5-2.86-14.86-2.656-14.917-.657-4.544c-.093-.557-.13-1.122-.115-1.686z"/><path d="M1029.97 376.45c-4.64.397-9.3.54-13.95.428a131.26 131.26 0 0 1-13.94-.328c4.64-.388 9.3-.526 13.94-.415a133.88 133.88 0 0 1 13.95.315z"/></g><path d="M1032.84 399.71c-1.43-12.316-3.47-22.86-3.47-22.86h-26.72s3.32 15.717 2.6 19.29c-.66 3.158-52.428 5.244-65.916 5.458-.815-.6-1.972.415-3.015-.5-.92-.817-1.698-1.783-2.3-2.857a17.33 17.33 0 0 1-1.844-4.173 1.42 1.42 0 0 0-.373-.729c-.193-.202-.44-.342-.713-.404s-.556-.044-.818.053-.488.27-.653.495c-.543 1.157.07 5 2.63 8.716s-4.158 1.786-6.616 1.128-10.173-2.33-10.96-1.714c-1.172.9-.443 2.343 2.03 2.943s9.773 2.858 9.373 4.287-12.86-2.244-12.86-2.244-2.544-1.186-3.058.315c-.915 2.715 12.617 5.458 13.917 5.715.9.172.514 1.615-.443 1.43s-12.374-3.815-13.33-1.057c-.743 2.114 11.116 2.372 13.074 4.458s-8.973-1.13-9.602.914c-.23.772 4.286 1.115 10.86 2.043 6.72.642 13.47.88 20.218.715 15.16.828 68.77 1.943 80.21 1.13 13.32-1.015 8.3-18.26 7.8-22.548z" class="G"/><path d="M947.94 378.52a21.39 21.39 0 0 1 .915-3.457l1.186-3.715.814-2.158c.172-.4.386-.743.486-1.072.113-.36.162-.737.143-1.114a19.56 19.56 0 0 0-.357-2.372l-.43-2.243-.657-3.83a17.4 17.4 0 0 1-.429-3.558 16.63 16.63 0 0 1 .943 3.457l.815 3.787.47 2.257a15.74 15.74 0 0 1 .386 2.487c.024.46-.04.92-.186 1.357a10.62 10.62 0 0 1-.514 1.129l-.843 2.115-1.33 3.63a14.48 14.48 0 0 1-1.415 3.3zm31.15-97.403c2.057 2.658 4.286 5.716 3.843 9.045-.357 2.857-2.686 5.5-2.3 8.416.457 3.357 4.287 5.558 4.544 8.944.157 2.858-2.258 4.973-3.958 7.144-1.248 1.606-2.167 3.443-2.704 5.404a15.46 15.46 0 0 0-.425 6.027 13.33 13.33 0 0 0 2.147 5.604 13.37 13.37 0 0 0 4.382 4.098 11.77 11.77 0 0 0 5.81 1.47 11.76 11.76 0 0 0 5.779-1.583 16.37 16.37 0 0 0 6.384-8.959c1.6-4.6 2.03-10.002-.7-14.06-1.1-1.63-2.726-3.03-3.083-4.972-.457-2.458 1.283-4.773 1.553-7.26.38-3.33-1.925-6.372-4.468-8.573s-5.544-3.944-7.444-6.7" class="B"/><path opacity=".1" d="M998.092 355.99c.93 14.288 1.43 27.505 1.772 41.836 1.906-.082 3.756-.664 5.376-1.686.72-6.115-3.9-24.733-7.148-40.15z" fill="#000"/><g fill="#fafafa"><path d="M963.257 349.402c-.207-1.1-.093-2.218.33-3.244.486-1.743 1.243-3.015 1.43-2.93-.063 1.076-.304 2.133-.715 3.13a10.15 10.15 0 0 1-1.043 3.044zm-15.174-.042c-.114.17-1.13-.33-2.115-1.272s-1.557-1.93-1.43-2.043.958.614 1.9 1.5 1.743 1.643 1.643 1.815zm-14.503 11.858s-.128-.13-.214-.386h.328c.223 1.166.223 2.364 0 3.53-.085 1.333-.584 2.607-1.428 3.643a28.65 28.65 0 0 1 .757-3.772c.257-1.43.314-2.772.4-3.386h.33c-.086.285-.115.357-.172.37zm-.643 14.832a7.5 7.5 0 0 1-3.13-.83c-1.657-.643-2.943-1.315-2.858-1.515a7.5 7.5 0 0 1 3.144.829c1.63.643 2.915 1.315 2.843 1.515zm12.288-8.216c-.2 0-.172-1.286.3-2.758s1.13-2.53 1.314-2.443-.17 1.243-.614 2.657-.857 2.572-1 2.544zm12.86-32.52c0 .2-1.072.415-2.415.486s-2.43 0-2.443-.257 1.07-.43 2.414-.486 2.444.043 2.444.257zm2.615 27.907c-.128.143-1.286-.715-2.057-2.287-.578-.896-.783-1.983-.572-3.03.214 0 .514 1.272 1.23 2.7s1.557 2.457 1.4 2.615zm25.376-6c.143.143-.758 1.286-2.115 2.458s-2.63 1.886-2.743 1.715.928-1.143 2.257-2.286 2.458-2.03 2.6-1.887zm-12.546-3.942c.114.172-.672.957-1.772 1.772s-2.1 1.357-2.215 1.186.672-.957 1.772-1.772 2.086-1.343 2.215-1.186zm6.16-10.258a5.9 5.9 0 0 1-3.044-1.686c-1.428-1.272-2.3-2.643-2.128-2.758s1.2.986 2.614 2.186 2.658 2.072 2.558 2.258zm14.444-4.002c.114.157-.686.986-1.815 1.83s-2.143 1.43-2.27 1.258.685-.986 1.814-1.844 2.143-1.414 2.272-1.243zm12.066 5.715c-.01-1.032.14-2.06.46-3.043.33-1.643.54-3 .76-2.986a5.38 5.38 0 0 1 0 3.129c-.36 1.715-1.03 2.972-1.22 2.9zm2.12 13.76c-.14.143-1.43-.814-2.85-2.157-1.43-1.343-2.53-2.544-2.4-2.686s1.43.8 2.86 2.143 2.53 2.543 2.38 2.7zm9.78-5.787c-.2-.085.18-1.428.82-2.857.65-1.43 1.33-2.686 1.52-2.6a6.53 6.53 0 0 1-.83 2.858c-.66 1.515-1.34 2.686-1.5 2.6zm.5 16.532c.24-1.196.73-2.33 1.42-3.33.5-1.1 1.18-2.115 2.05-2.958a8.77 8.77 0 0 1-1.43 3.315 9.22 9.22 0 0 1-2.04 2.972zm-9.63 2.53c-.18.13-1.15-.9-2.2-2.3s-1.75-2.615-1.6-2.743c.16-.13 1.16.9 2.2 2.3 1.05 1.4 1.76 2.615 1.6 2.743z"/><path d="M990.8 378.85a10.51 10.51 0 0 1 1.958-4.115 10.34 10.34 0 0 1 3.029-3.386 21.87 21.87 0 0 1-2.401 3.8c-.734 1.318-1.6 2.558-2.586 3.7zm-13.06-1.314c-.873-.964-1.557-2.083-2.014-3.3a10.47 10.47 0 0 1-1.358-3.629 20.36 20.36 0 0 1 3.372 6.93zm-16.445-3.83c-.82 1.195-1.834 2.243-3 3.1a12.69 12.69 0 0 1-3.472 2.558c-.143-.158 1.2-1.544 2.986-3.115a12.56 12.56 0 0 1 3.487-2.544zm6.245 17.86c-.172.128-1.343-1.2-2.858-2.743l-2.73-2.858a8.44 8.44 0 0 1 3.286 2.315 8.27 8.27 0 0 1 2.301 3.286zm11.516.533a7.14 7.14 0 0 1 1.272-3.644c1.07-1.857 2.37-3.058 2.514-2.858a17.83 17.83 0 0 1-1.886 3.244c-.52 1.148-1.156 2.24-1.9 3.258zm16.188 1.896a12.71 12.71 0 0 1-3.529-2.472c-1.186-.837-2.224-1.865-3.072-3.044a12.79 12.79 0 0 1 3.543 2.472 12.98 12.98 0 0 1 3.058 3.044zm-1.43-42.55c-1.12-.18-2.166-.676-3.015-1.43-1.514-1.1-2.443-2.315-2.3-2.458s1.286.8 2.743 1.858l2.572 2.03zm-23.39 73.228c.086.2-1.072.815-2.358 1.772s-2.243 1.857-2.4 1.73.57-1.315 1.957-2.33 2.744-1.358 2.8-1.172zm17.288 7.06a15.61 15.61 0 0 1-2.357-6.387 15.82 15.82 0 0 1 2.357 6.387zm17.436-6.172c.15.143-.75 1.315-2 2.615s-2.37 2.243-2.5 2.1c-.15-.143.74-1.314 1.98-2.615s2.37-2.23 2.52-2.1zm12.96 9.4c-.16.157-1.32-.758-3.03-1.086-1.72-.33-3.13 0-3.2-.186a3.75 3.75 0 0 1 1.61-.67 3.77 3.77 0 0 1 1.74.127c1.9.386 2.98 1.7 2.88 1.815z"/></g><g class="H"><path d="M1025.14 441.32s-98.676-20.675-108.235-16.146-53.6 113.422-53.6 113.422l35.478 15.26 38.165-92.532s69.082 25.233 81.162 22.7c12.07-2.543 7.04-42.694 7.04-42.694z"/><path d="M981.03 447.12c-1.5.5-58.582 23.976-62.612 31.506s5.86 132.797 5.86 132.797h32.463l-2-111.32 63.36-16.09-37.07-36.893z"/></g><g class="B"><path d="M1018.42 484.313a5.43 5.43 0 0 1-.92-.114l-2.66-.472-9.73-1.957c-8.2-1.73-19.477-4.287-31.765-7.873-6.144-1.772-11.945-3.63-17.146-5.43s-9.902-3.6-13.746-5.244c-1.943-.786-3.672-1.57-5.187-2.257s-2.857-1.272-3.872-1.815l-2.4-1.214a4.56 4.56 0 0 1-.829-.472 5.99 5.99 0 0 1 .886.343l2.472 1.086c1.057.486 2.372 1.057 3.9 1.7s3.272 1.43 5.215 2.143c3.872 1.587 8.573 3.258 13.788 5.087s11.03 3.587 17.146 5.358c12.274 3.53 23.52 6.216 31.677 8.073l9.67 2.186 2.63.6a4.39 4.39 0 0 1 .87.271zm-99.986 23.1a9.95 9.95 0 0 1-.3-1.872l-.543-5.143-.7-7.616c-.437-3.133-.437-6.312 0-9.445a14.63 14.63 0 0 1 4.73-8.158 24.93 24.93 0 0 1 6.5-4.187 50.03 50.03 0 0 1 4.815-1.9c.6-.237 1.203-.414 1.83-.53 0 .13-2.515 1.03-6.416 2.858-2.286 1.075-4.396 2.492-6.258 4.2a14.3 14.3 0 0 0-4.472 7.802c-.4 3.07-.4 6.176 0 9.245l.557 7.63.3 5.158c.058.652.044 1.308-.043 1.957zm28.476-10.76c2.742.668 5.344 1.814 7.687 3.386a24.29 24.29 0 0 1-7.687-3.386z"/><path d="M949.783 493.215c.925 1.173 1.788 2.394 2.586 3.658 1.43 1.957 2.958 3.315 2.858 3.486a8.39 8.39 0 0 1-3.415-3.043c-1.05-1.148-1.754-2.57-2.03-4.1z"/><path d="M962.242 498.302s-.1.27-.5.514a3.82 3.82 0 0 1-1.886.443c-.9-.032-1.803-.008-2.7.07a1.9 1.9 0 0 0-1.217.707c-.3.383-.443.866-.397 1.35a51.74 51.74 0 0 1-.4 8.673c-.367-2.9-.48-5.806-.343-8.716.007-.664.222-1.308.614-1.843.42-.474 1-.78 1.63-.858.953-.05 1.91-.023 2.858.086.805.06 1.61-.088 2.343-.428z"/></g><path d="M954.455 424.53l67.255 5.4-2.87-7.53-63.728-.914-.657 3.043z" fill="#000" class="M"/><g class="B"><path d="M1136.5 409.77H740v10.574h21.204l-10.93 201.095 6.03.33 10.96-201.424h347.608l9.32 201.267h6.06l-9.33-201.267h15.57V409.77z"/><path d="M855.637 347.244l22 64.24h99.56l-.742-3.3-40.25-1.257L917.65 347.2l-62.012.043z"/></g><path d="M899.76 377.407c.657 2.643-.472 5.215-2.515 5.715s-4.287-1.143-4.9-3.786.472-5.2 2.515-5.716 4.243 1.158 4.9 3.787z" class="E"/><defs ><path id="E" d="M1202.2 288.042c3.15-39.773-6.54-81.323-19.48-118.343-19.22-55.043-56.62-111.407-119.4-124.43-36.25-7.502-73.147.55-104.223 19.36-29.88 18.086-53.203 41.455-89.94 45.984-37.162 4.577-75.3 2.72-112.665 2.72-96.042 0-174 96.624-154.435 197.274s111.28 170.477 189.238 170.477c70.062 0 127.684-40.245 194.223-51.05 33.022-5.363 66.132.975 98.782-7.046 37.95-9.34 73.63-31.6 94.66-63.85 14.32-21.985 21.3-46.19 23.25-71.1z"/></defs></svg>