<?xml version="1.0" standalone="no"?><!DOCTYPE svg PUBLIC "-//W3C//DTD SVG 1.1//EN" "http://www.w3.org/Graphics/SVG/1.1/DTD/svg11.dtd"><svg t="1678959938806" class="icon" viewBox="0 0 1024 1024" version="1.1" xmlns="http://www.w3.org/2000/svg" p-id="3385" xmlns:xlink="http://www.w3.org/1999/xlink" width="128" height="128"><path d="M960 512h-64V192c0-38.4-25.6-64-64-64H192c-38.4 0-64 25.6-64 64v640c0 38.4 25.6 64 64 64h320v64H192c-70.4 0-128-57.6-128-128V192c0-70.4 57.6-128 128-128h640c70.4 0 128 57.6 128 128v320z m-160 332.8s-6.4 0 0 0l-64 57.6c-25.6 25.6-70.4 32-102.4 0s-25.6-76.8 0-102.4l57.6-57.6v-6.4l-19.2-19.2h-6.4l-57.6 57.6c-44.8 44.8-44.8 108.8 0 153.6s108.8 44.8 153.6 0l57.6-57.6v-6.4l-19.2-19.2z m128-236.8c-44.8-44.8-108.8-44.8-153.6 0l-57.6 57.6v6.4l19.2 19.2h6.4l57.6-57.6c25.6-25.6 70.4-32 102.4 0s25.6 76.8 0 102.4l-57.6 57.6v6.4l19.2 19.2h6.4l57.6-57.6c44.8-44.8 44.8-108.8 0-153.6z m-108.8 89.6c-6.4 0-6.4 0 0 0l-121.6 115.2v6.4l19.2 19.2h6.4l115.2-115.2v-6.4l-19.2-19.2zM390.4 467.2c76.8 0 134.4-64 134.4-134.4S467.2 192 390.4 192 256 256 256 326.4s64 140.8 134.4 140.8z m6.4-230.4c51.2 0 96 44.8 96 96S448 428.8 396.8 428.8 300.8 384 300.8 332.8s38.4-96 96-96z m-185.6 563.2l-44.8-25.6 160-236.8L467.2 640l179.2-230.4 102.4 83.2-32 38.4-64-51.2-179.2 230.4-128-102.4-134.4 192z" p-id="3386" fill="#333333"></path></svg>