<svg width="63" height="36" viewBox="0 0 63 36" fill="none" xmlns="http://www.w3.org/2000/svg">
<path d="M56.9355 0C56.6014 0 56.2752 0.0316595 55.9577 0.0903601C55.7787 0.131912 55.6003 0.18072 55.4252 0.236782C54.9933 0.375289 54.5746 0.555347 54.1786 0.77498C54.0821 0.829064 53.9869 0.885788 53.8937 0.945148C53.0304 1.48665 52.3102 2.23524 51.7917 3.10916C51.618 3.40266 51.4649 3.70935 51.3364 4.02528C51.1261 4.54106 50.957 5.10564 50.8339 5.69924C50.7441 6.13983 50.6642 6.58437 50.5856 7.01638C50.3088 8.54853 50.0472 9.99428 49.3503 11.4578C48.9343 12.3258 48.2134 13.5058 47.1292 14.1924C46.0922 14.8453 44.9573 14.9073 43.7552 14.3737C42.9691 14.0242 42.1891 13.4728 41.2971 12.6358C41.1966 12.5408 41.0935 12.4452 40.991 12.3482C39.6551 11.0859 38.1402 9.65527 36.3011 9.18633C35.3174 8.93569 34.4082 9.10454 33.6713 9.6711C32.8307 10.3155 32.6723 11.4447 32.6696 12.649C32.6649 13.9285 33.033 15.3413 34.076 16.1783C35.0065 16.9236 36.2605 17.0661 37.4094 17.1742C37.7155 17.2033 38.0217 17.2283 38.3279 17.2567C38.6294 17.2857 38.9156 17.3121 39.2012 17.3451C39.2551 17.3497 39.309 17.3563 39.3622 17.3629C39.4781 17.3787 39.6105 17.3919 39.751 17.4077C41.3331 17.5845 44.2737 17.9123 44.526 19.761C44.6664 20.7926 44.2404 21.6454 43.2227 22.365C42.3428 22.9869 41.1787 23.4031 40.153 23.7711C39.6078 23.9677 39.094 24.1517 38.7073 24.3397C37.9811 24.6919 37.3288 25.2631 36.8669 25.947C36.3724 26.6778 36.1334 27.4798 36.174 28.2614C36.2159 29.1221 36.6073 29.8707 37.2709 30.3687C37.9518 30.8805 38.9602 31.0395 39.8448 30.8376C40.5929 30.6695 41.2213 30.3245 41.8642 29.8067C42.627 29.1953 43.2567 28.4626 43.7399 27.6276C43.8584 27.4198 43.9762 27.2048 44.088 26.997C44.4521 26.3263 44.8255 25.635 45.366 25.0883C46.4256 24.0119 48.1389 24.1497 49.3656 24.7605C50.6129 25.3824 51.6499 26.5624 52.2863 28.0879C52.655 28.9717 52.8094 29.9413 52.9585 30.8779C53.0644 31.5269 53.1715 32.1957 53.3472 32.8308C53.517 33.4376 53.8105 34.3214 54.4135 34.981C55.0146 35.6386 55.8526 36 56.7731 36H56.7931C57.7648 35.9927 58.6814 35.5878 59.309 34.8834C60.0132 34.0952 60.9072 32.6204 61.1701 30.0567C61.3764 28.053 61.22 26.3592 60.7055 25.0177C60.185 23.6557 59.2738 22.6083 58.0025 21.9019C56.9408 21.313 55.7521 21.3882 54.6032 21.4594C53.7093 21.5168 52.7848 21.5741 51.9222 21.3222C51.8909 21.313 51.8616 21.3044 51.8303 21.2952C51.7032 21.2536 51.5801 21.2087 51.4662 21.1626C50.4299 20.7306 48.0783 19.4932 48.6467 17.3543C49.1067 15.6203 50.8991 14.4292 52.3195 13.734C53.2427 13.2822 54.2238 13.019 55.171 12.7618C56.6167 12.372 58.1116 11.969 59.3696 10.8933C60.6629 9.78652 61.5807 8.39222 62.0061 6.93064C62.1412 6.46565 62.227 5.99341 62.2583 5.52182C62.265 5.42816 62.2683 5.33385 62.2696 5.23821C62.2437 2.34077 59.8655 0 56.9355 0Z" fill="url(#paint0_radial_6135_5768)"/>
<path d="M56.9355 0C56.6014 0 56.2752 0.0316595 55.9577 0.0903601C55.7787 0.131912 55.6003 0.18072 55.4252 0.236782C54.9933 0.375289 54.5746 0.555347 54.1786 0.77498C54.0821 0.829064 53.9869 0.885788 53.8937 0.945148C53.0304 1.48665 52.3102 2.23524 51.7917 3.10916C51.618 3.40266 51.4649 3.70935 51.3364 4.02528C51.1261 4.54106 50.957 5.10564 50.8339 5.69924C50.7441 6.13983 50.6642 6.58437 50.5856 7.01638C50.3088 8.54853 50.0472 9.99428 49.3503 11.4578C48.9343 12.3258 48.2134 13.5058 47.1292 14.1924C46.0922 14.8453 44.9573 14.9073 43.7552 14.3737C42.9691 14.0242 42.1891 13.4728 41.2971 12.6358C41.1966 12.5408 41.0935 12.4452 40.991 12.3482C39.6551 11.0859 38.1402 9.65527 36.3011 9.18633C35.3174 8.93569 34.4082 9.10454 33.6713 9.6711C32.8307 10.3155 32.6723 11.4447 32.6696 12.649C32.6649 13.9285 33.033 15.3413 34.076 16.1783C35.0065 16.9236 36.2605 17.0661 37.4094 17.1742C37.7155 17.2033 38.0217 17.2283 38.3279 17.2567C38.6294 17.2857 38.9156 17.3121 39.2012 17.3451C39.2551 17.3497 39.309 17.3563 39.3622 17.3629C39.4781 17.3787 39.6105 17.3919 39.751 17.4077C41.3331 17.5845 44.2737 17.9123 44.526 19.761C44.6664 20.7926 44.2404 21.6454 43.2227 22.365C42.3428 22.9869 41.1787 23.4031 40.153 23.7711C39.6078 23.9677 39.094 24.1517 38.7073 24.3397C37.9811 24.6919 37.3288 25.2631 36.8669 25.947C36.3724 26.6778 36.1334 27.4798 36.174 28.2614C36.2159 29.1221 36.6073 29.8707 37.2709 30.3687C37.9518 30.8805 38.9602 31.0395 39.8448 30.8376C40.5929 30.6695 41.2213 30.3245 41.8642 29.8067C42.627 29.1953 43.2567 28.4626 43.7399 27.6276C43.8584 27.4198 43.9762 27.2048 44.088 26.997C44.4521 26.3263 44.8255 25.635 45.366 25.0883C46.4256 24.0119 48.1389 24.1497 49.3656 24.7605C50.6129 25.3824 51.6499 26.5624 52.2863 28.0879C52.655 28.9717 52.8094 29.9413 52.9585 30.8779C53.0644 31.5269 53.1715 32.1957 53.3472 32.8308C53.517 33.4376 53.8105 34.3214 54.4135 34.981C55.0146 35.6386 55.8526 36 56.7731 36H56.7931C57.7648 35.9927 58.6814 35.5878 59.309 34.8834C60.0132 34.0952 60.9072 32.6204 61.1701 30.0567C61.3764 28.053 61.22 26.3592 60.7055 25.0177C60.185 23.6557 59.2738 22.6083 58.0025 21.9019C56.9408 21.313 55.7521 21.3882 54.6032 21.4594C53.7093 21.5168 52.7848 21.5741 51.9222 21.3222C51.8909 21.313 51.8616 21.3044 51.8303 21.2952C51.7032 21.2536 51.5801 21.2087 51.4662 21.1626C50.4299 20.7306 48.0783 19.4932 48.6467 17.3543C49.1067 15.6203 50.8991 14.4292 52.3195 13.734C53.2427 13.2822 54.2238 13.019 55.171 12.7618C56.6167 12.372 58.1116 11.969 59.3696 10.8933C60.6629 9.78652 61.5807 8.39222 62.0061 6.93064C62.1412 6.46565 62.227 5.99341 62.2583 5.52182C62.265 5.42816 62.2683 5.33385 62.2696 5.23821C62.2437 2.34077 59.8655 0 56.9355 0Z" fill="url(#paint1_radial_6135_5768)"/>
<path fill-rule="evenodd" clip-rule="evenodd" d="M55.426 2.46326C58.037 2.46326 59.8602 4.80902 59.7813 6.89374C59.5141 13.9551 48.5838 11.2536 48.136 17.8198C48.0175 19.5537 50.0371 21.9087 52.5904 21.9732C55.5548 22.0483 59.2985 21.3641 60.2104 26.1907C61.0775 30.7792 58.9636 34.2293 56.3396 33.9502C54.5442 33.7592 54.0773 31.3773 52.4861 27.5908C51.0686 24.2184 49.0903 23.5652 47.4934 23.5652C46.2946 23.5652 44.6995 24.2699 43.7746 26.5932C42.6293 29.4709 39.3788 30.2759 37.82 28.2369C36.7241 26.8035 37.7787 24.7995 39.7911 24.3251C42.9335 23.5842 45.8586 21.6213 44.9257 19.2445C44.0999 17.1417 41.113 17.0099 37.4069 16.7092C32.8649 16.3405 32.4826 11.0034 35.1388 10.2201C38.9734 9.08943 40.9512 15.0828 45.3611 15.0828C48.4417 15.0828 50.3963 10.7269 51.0562 7.14265C51.7161 3.55836 53.2267 2.46326 55.426 2.46326ZM55.426 2.77935C57.8455 2.77935 59.5386 4.94988 59.4655 6.88181C59.3375 10.2602 56.6184 11.2617 53.9183 12.2455C52.7727 12.6627 51.6245 13.0715 50.6433 13.6231C49.1013 14.4902 47.9635 15.7037 47.8205 17.7984C47.7688 18.5577 48.0805 19.43 48.6653 20.2029C49.5194 21.3317 50.9493 22.2479 52.5823 22.2893C53.4682 22.3115 54.424 22.2656 55.3526 22.3205C56.5785 22.3933 57.7594 22.6368 58.6331 23.5175C59.2173 24.1063 59.6594 24.9763 59.8998 26.2496C60.3993 28.8925 59.8868 31.1452 58.838 32.4642C58.183 33.2882 57.3176 33.7364 56.3731 33.6358C55.7507 33.5697 55.3246 33.1836 54.9345 32.5532C54.2656 31.4723 53.7236 29.7202 52.7774 27.4683C51.2833 23.9128 49.177 23.2488 47.4934 23.2488C46.2062 23.2488 44.4741 23.9818 43.481 26.4761C42.4366 29.1002 39.4924 29.9043 38.0711 28.0447C37.1067 26.7836 38.0928 25.0503 39.8636 24.6328C41.8217 24.1711 43.692 23.2407 44.6709 22.0466C45.375 21.1876 45.6382 20.1945 45.2198 19.1289C44.8566 18.2044 44.1225 17.6161 43.1005 17.2341C41.6845 16.7051 39.6906 16.5774 37.4326 16.3939C34.918 16.1899 33.7721 14.3483 33.7976 12.7413C33.8137 11.7242 34.2974 10.7977 35.2283 10.5233C36.1012 10.2659 36.868 10.4179 37.5906 10.7847C38.3618 11.1761 39.0832 11.8043 39.8241 12.4636C41.4054 13.8704 43.0748 15.3986 45.3611 15.3986C46.6861 15.3986 47.8263 14.6647 48.7523 13.5188C50.0741 11.8829 50.9617 9.40052 51.3671 7.19989C51.7418 5.16374 52.3833 3.96422 53.3049 3.33981C53.9033 2.93442 54.6147 2.77935 55.426 2.77935Z" fill="url(#paint2_radial_6135_5768)"/>
<path d="M0 28.8277H3.09C5.09496 28.8277 6.62817 28.1227 6.62817 26.1036C6.62817 25.1239 6.08565 24.4787 4.92985 24.3353V24.3114C5.90874 24.0486 6.84046 23.4153 6.84046 22.0174C6.84046 21.0138 6.28614 20.1775 4.54065 20.1775H1.19118L0 28.8277ZM2.91309 27.5134H1.99317L2.3234 25.1H3.23153C4.02172 25.1 4.71756 25.2194 4.71756 26.0916C4.71756 27.2864 4.00992 27.5134 2.91309 27.5134ZM3.16076 23.7857H2.5003L2.81874 21.5156H3.56175C4.38733 21.5156 5.0124 21.5515 5.0124 22.3759C5.0124 23.5706 4.06889 23.7857 3.16076 23.7857Z" fill="#F21D68"/>
<path d="M9.97006 28.9763C12.376 28.9763 13.4728 27.1602 13.4728 25.1649C13.4728 23.6356 12.8124 22.4886 10.8546 22.4886C8.47224 22.4886 7.29285 24.2091 7.29285 26.3239C7.29285 27.9846 8.10662 28.9763 9.97006 28.9763ZM10.1116 27.7218C9.46292 27.7218 9.09731 27.3275 9.09731 26.3358C9.09731 25.3203 9.39216 23.779 10.6423 23.779C11.2674 23.779 11.6212 24.1494 11.6212 25.1052C11.6212 26.0969 11.3617 27.7218 10.1116 27.7218Z" fill="#F21D68"/>
<path d="M19.7653 27.3514L20.4258 22.6081H18.7628L18.6685 23.1099C18.3147 22.7634 17.8075 22.4886 17.0763 22.4886C15.4841 22.4886 14.0925 23.9343 14.0925 26.5509C14.0925 28.2594 14.9298 28.9763 16.1564 28.9763C16.9348 28.9763 17.6306 28.6298 18.0788 28.1041C18.1614 28.7015 18.5388 28.9524 19.2346 28.9524C19.5884 28.9524 20.1074 28.8448 20.3314 28.7373L20.4376 27.7576C20.2725 27.8054 20.1663 27.8173 20.0602 27.8173C19.7653 27.8173 19.7182 27.674 19.7653 27.3514ZM18.4208 24.2569L18.0316 27.0885C17.607 27.4709 17.2414 27.5903 16.8876 27.5903C16.2861 27.5903 15.9677 27.1722 15.9677 26.3358C15.9677 25.3442 16.3097 23.8746 17.4537 23.8746C17.8311 23.8746 18.1967 24.0419 18.4208 24.2569Z" fill="#F21D68"/>
<path d="M22.939 28.8329L23.4934 24.8662C24.1184 24.3883 24.8379 24.1494 25.6399 24.1972L25.8757 22.5125C25.7696 22.5006 25.6634 22.4886 25.5573 22.4886C24.6256 22.4886 24.0241 23.0382 23.5405 23.6476H23.517L23.6467 22.6081H22.0191L21.1582 28.8329H22.939Z" fill="#F21D68"/>
<path d="M29.9218 28.833H31.4197L32.6698 19.8125H30.9597L30.5115 23.0981C30.1459 22.7516 29.6742 22.4888 28.9429 22.4888C27.5631 22.4888 25.9355 23.5641 25.9355 26.563C25.9355 28.2476 26.7493 28.9764 27.9876 28.9764C28.7542 28.9764 29.4147 28.6419 29.8982 28.164L29.9218 28.1759V28.833ZM30.2757 24.2332L29.8747 27.1126C29.5326 27.3993 29.1316 27.5546 28.7307 27.5546C28.023 27.5546 27.8107 26.9214 27.8107 26.3838C27.8107 25.2368 28.1881 23.8628 29.3439 23.8628C29.7331 23.8628 30.0752 24.0539 30.2757 24.2332Z" fill="#F21D68"/>
<defs>
<radialGradient id="paint0_radial_6135_5768" cx="0" cy="0" r="1" gradientUnits="userSpaceOnUse" gradientTransform="translate(40.9268 7.06842) rotate(46.6845) scale(21.8792 26.3551)">
<stop stop-color="#F4A261"/>
<stop offset="1" stop-color="#F21D68"/>
</radialGradient>
<radialGradient id="paint1_radial_6135_5768" cx="0" cy="0" r="1" gradientUnits="userSpaceOnUse" gradientTransform="translate(36.9041 10.334) rotate(46.0897) scale(18.3922 22.1977)">
<stop stop-color="#F4A261"/>
<stop offset="1" stop-color="#F4A261" stop-opacity="0"/>
</radialGradient>
<radialGradient id="paint2_radial_6135_5768" cx="0" cy="0" r="1" gradientUnits="userSpaceOnUse" gradientTransform="translate(36.1257 11.6254) rotate(39.6038) scale(29.4077)">
<stop stop-color="#FFFFC2"/>
<stop offset="0.43" stop-color="#FFC2C6"/>
<stop offset="1" stop-color="#FF3AD0"/>
</radialGradient>
</defs>
</svg>
