<svg width="320" height="453" viewBox="0 0 320 453" fill="none" xmlns="http://www.w3.org/2000/svg">
<rect width="320" height="453" fill="#FF5929"/>
<path d="M73.6705 265V195.182H98.5568C103.989 195.182 108.489 196.17 112.057 198.148C115.625 200.125 118.295 202.83 120.068 206.261C121.841 209.67 122.727 213.511 122.727 217.784C122.727 222.08 121.83 225.943 120.034 229.375C118.261 232.784 115.58 235.489 111.989 237.489C108.42 239.466 103.932 240.455 98.5227 240.455H81.4091V231.523H97.5682C101 231.523 103.784 230.932 105.92 229.75C108.057 228.545 109.625 226.909 110.625 224.841C111.625 222.773 112.125 220.42 112.125 217.784C112.125 215.148 111.625 212.807 110.625 210.761C109.625 208.716 108.045 207.114 105.886 205.955C103.75 204.795 100.932 204.216 97.4318 204.216H84.2045V265H73.6705ZM156.179 265H133.577V195.182H156.895C163.736 195.182 169.611 196.58 174.52 199.375C179.429 202.148 183.19 206.136 185.804 211.341C188.44 216.523 189.759 222.739 189.759 229.989C189.759 237.261 188.429 243.511 185.77 248.739C183.134 253.966 179.315 257.989 174.315 260.807C169.315 263.602 163.27 265 156.179 265ZM144.111 255.795H155.599C160.918 255.795 165.338 254.795 168.861 252.795C172.384 250.773 175.02 247.852 176.77 244.034C178.52 240.193 179.395 235.511 179.395 229.989C179.395 224.511 178.52 219.864 176.77 216.045C175.043 212.227 172.463 209.33 169.031 207.352C165.599 205.375 161.338 204.386 156.247 204.386H144.111V255.795ZM201.358 265V195.182H244.653V204.25H211.892V225.523H241.551V234.557H211.892V265H201.358Z" fill="white"/>
</svg>
